# Blender v2.81 (sub 16) OBJ File: 'bench.blend'
# www.blender.org
mtllib bench.mtl
o bench_Cube
v 0.507333 0.572943 -1.650563
v 0.507333 0.000000 -1.650563
v 0.507333 0.572943 1.650563
v 0.507333 0.000000 1.650563
v -0.361528 0.572943 -1.650563
v -0.157056 0.000000 -1.650563
v -0.361528 0.572943 1.650563
v -0.157056 0.000000 1.650563
v 0.608250 0.572943 1.783898
v -0.462445 0.572943 1.783898
v 0.608250 0.572943 -1.783898
v -0.462445 0.572943 -1.783898
v 0.538807 0.727600 1.783898
v -0.462445 0.727600 1.783898
v 0.538807 0.727600 -1.783898
v -0.462445 0.727600 -1.783898
v 0.799167 0.776173 -1.783898
v 0.799167 0.776173 1.783898
v 0.634873 0.826966 -1.783898
v 0.634873 0.826966 1.783898
v 0.883648 1.618704 -1.783898
v 0.883648 1.618704 1.783898
v 0.719353 1.637931 -1.783898
v 0.719353 1.637931 1.783898
vt 0.157450 0.401813
vt 0.157450 0.339118
vt 0.322245 0.339118
vt 0.283463 0.401813
vt 0.372824 0.684352
vt 0.372824 0.620086
vt 0.998944 0.620086
vt 0.998944 0.684352
vt 0.372824 0.620086
vt 0.372824 0.547384
vt 0.998944 0.547384
vt 0.998944 0.620086
vt 0.372824 0.746969
vt 0.372824 0.684352
vt 0.998944 0.684352
vt 0.998944 0.746969
vt 0.196232 0.339118
vt 0.157450 0.276422
vt 0.322245 0.276422
vt 0.322245 0.339118
vt 0.161364 0.106613
vt 0.322245 0.178111
vt 0.304345 0.191518
vt 0.153898 0.124658
vt 0.998944 0.763840
vt 0.322245 0.763840
vt 0.322245 0.746969
vt 0.998944 0.746969
vt 0.000554 0.263015
vt 0.159825 0.191518
vt 0.167291 0.209562
vt 0.018455 0.276422
vt 0.109155 0.111482
vt 0.127962 0.126857
vt 0.023015 0.191518
vt 0.000554 0.178880
vt 0.212034 0.196387
vt 0.193226 0.211761
vt 0.998944 0.763840
vt 0.322232 0.763840
vt 0.322232 0.748228
vt 0.998944 0.748228
vt 0.322245 0.263785
vt 0.299784 0.276422
vt 0.973654 0.332809
vt 0.973654 0.237732
vt 0.998944 0.226689
vt 0.998944 0.343852
vt 0.347535 0.237732
vt 0.347535 0.332809
vt 0.322245 0.343852
vt 0.322245 0.226689
vt 0.322245 0.216177
vt 0.322245 0.106613
vt 0.998944 0.106613
vt 0.998944 0.216177
vt 0.998944 0.241748
vt 0.322245 0.241748
vt 0.998944 0.459649
vt 0.322245 0.459649
vt 0.322245 0.436395
vt 0.998944 0.436394
vt 0.322245 0.343852
vt 0.998944 0.343852
vt 0.000004 0.787995
vt 0.700075 0.787995
vt 0.700075 0.998432
vt 0.000004 0.998432
vn 0.0000 0.0000 1.0000
vn -0.9418 -0.3361 0.0000
vn 0.0000 -1.0000 0.0000
vn 1.0000 0.0000 0.0000
vn 0.0000 0.0000 -1.0000
vn -1.0000 0.0000 0.0000
vn 0.1162 0.9932 0.0000
vn 0.3015 -0.9045 -0.3015
vn -0.2650 -0.9388 -0.2200
vn -0.5773 -0.5773 -0.5773
vn 0.3091 -0.7144 -0.6277
vn -0.2650 -0.9388 0.2200
vn 0.3015 -0.9045 0.3015
vn 0.3091 -0.7144 0.6277
vn -0.5773 -0.5773 0.5773
vn -0.2309 0.5444 -0.8064
vn -0.5773 0.5773 -0.5773
vn -0.5773 0.5773 0.5773
vn -0.2309 0.5444 0.8064
vn -0.5575 0.2599 0.7884
vn -0.5575 0.2599 -0.7884
vn 0.6983 -0.3177 -0.6414
vn 0.6983 -0.3177 0.6414
vn 0.6358 0.5112 -0.5782
vn 0.6358 0.5112 0.5782
vn -0.5107 0.6377 0.5767
vn -0.5107 0.6377 -0.5767
usemtl Material
s off
f 4/1/1 3/2/1 7/3/1 8/4/1
f 8/5/2 7/6/2 5/7/2 6/8/2
f 6/9/3 2/10/3 4/11/3 8/12/3
f 2/13/4 1/14/4 3/15/4 4/16/4
f 6/17/5 5/18/5 1/19/5 2/20/5
f 11/21/5 12/22/5 16/23/5 15/24/5
f 12/25/6 10/26/6 14/27/6 16/28/6
f 10/29/1 9/30/1 13/31/1 14/32/1
f 17/33/5 19/34/5 23/35/5 21/36/5
f 13/31/1 9/30/1 18/37/1 20/38/1
f 11/21/5 15/24/5 19/34/5 17/33/5
f 22/39/7 21/40/7 23/41/7 24/42/7
f 20/38/1 18/37/1 22/43/1 24/44/1
s 1
f 1/45/8 5/46/9 12/47/10 11/48/11
f 7/49/12 3/50/13 9/51/14 10/52/15
f 5/46/9 7/49/12 10/52/15 12/47/10
f 3/50/13 1/45/8 11/48/11 9/51/14
f 15/53/16 16/54/17 14/55/18 13/56/19
f 15/53/16 13/56/19 20/57/20 19/58/21
f 9/59/14 11/60/11 17/61/22 18/62/23
f 18/62/23 17/61/22 21/63/24 22/64/25
f 19/65/21 20/66/20 24/67/26 23/68/27
