# Blender 3.4.1
# www.blender.org
mtllib tree001.mtl
g Tree_Mesh
v -1.219588 4.708317 -0.114546
v -0.159855 4.671478 1.191746
v 0.087201 4.765359 -1.172389
v 1.146935 4.728520 0.133903
v -0.000000 0.000001 -0.187034
v 0.031399 5.421097 -0.027052
v 0.161976 0.000000 -0.093517
v 0.057478 5.421097 -0.011996
v 0.161976 0.000000 0.093517
v 0.057478 5.421096 0.018117
v -0.000000 0.000001 0.187034
v 0.031399 5.421096 0.033173
v -0.161976 0.000000 0.093517
v 0.005321 5.421096 0.018117
v -0.161976 0.000000 -0.093517
v 0.005321 5.421097 -0.011996
v 0.031399 5.451596 0.003060
v -0.013239 1.745441 -0.131576
v -0.023519 3.616394 -0.088046
v 0.049000 3.616394 -0.046177
v 0.082550 1.745440 -0.076272
v 0.049000 3.616394 0.037560
v 0.082550 1.745441 0.034337
v -0.023519 3.616395 0.079429
v -0.013239 1.745441 0.089641
v -0.096038 3.616395 0.037560
v -0.109029 1.745441 0.034337
v -0.096038 3.616394 -0.046177
v -0.109029 1.745441 -0.076272
v -0.001400 4.517217 -0.035727
v 0.045914 4.517217 -0.008410
v 0.045914 4.517217 0.046223
v -0.001400 4.517217 0.073540
v -0.048714 4.517217 0.046223
v -0.048714 4.517217 -0.008410
v -1.106642 1.943281 2.377475
v 2.374317 1.798566 1.109884
v -2.376151 1.908639 -1.105279
v 0.925210 1.763924 -1.987132
v -1.440659 2.917567 1.440964
v 1.437748 2.729639 1.443463
v -1.437748 2.923916 -1.443463
v 1.440659 2.735988 -1.440964
v -1.550937 3.885172 0.668146
v 0.667876 3.842301 1.550138
v -0.667876 3.931632 -1.550138
v 1.550937 3.888761 -0.668146
v 0.650588 5.358693 0.232805
v 0.259522 5.358693 -0.623871
v -0.206088 5.358693 0.623871
v -0.597154 5.358693 -0.232805
v -0.585146 5.003775 0.561784
v 0.570594 4.945321 0.603611
v -0.534571 5.186302 -0.580594
v 0.621169 5.127848 -0.538767
v -1.705587 4.277822 0.042034
v -0.027490 4.390406 1.736017
v -0.006369 4.187420 -1.632681
v 1.671727 4.300004 0.061302
v -1.440659 2.917567 1.440964
v 1.437748 2.729639 1.443463
v -1.437748 2.923916 -1.443463
v 1.440659 2.735988 -1.440964
v -2.035539 3.429776 -0.190543
v -0.190088 3.367810 2.033958
v 0.190088 3.504533 -2.033958
v 2.035538 3.442566 0.190543
v -2.273511 2.126073 -0.032083
v 0.032124 2.167605 2.249060
v 0.002343 2.319245 -2.335682
v 2.307978 2.360777 -0.054538
vn -0.0126 0.9992 0.0384
vn -0.0016 0.0342 -0.9994
vn 0.0069 0.3471 -0.9378
vn 0.8157 0.3368 -0.4703
vn 0.8686 0.0053 -0.4956
vn 0.8161 0.3447 0.4639
vn 0.8626 0.0015 0.5060
vn 0.0070 0.3633 0.9317
vn -0.0016 0.0255 0.9997
vn -0.8029 0.3740 0.4642
vn -0.8621 0.0535 0.5038
vn -0.0000 1.0000 -0.0000
vn -0.8028 0.3657 -0.4709
vn -0.8679 0.0583 -0.4933
vn -0.8666 0.0312 -0.4980
vn -0.8644 0.0227 -0.5022
vn -0.0004 0.0275 -0.9996
vn 0.0024 0.0318 -0.9995
vn -0.8654 0.0399 -0.4995
vn -0.0046 0.0405 -0.9992
vn -0.8630 0.0432 0.5034
vn -0.8673 0.0243 0.4972
vn -0.8681 0.0230 0.4959
vn 0.0023 0.0557 0.9984
vn -0.0004 0.0308 0.9995
vn -0.0048 0.0061 1.0000
vn 0.8636 0.0563 0.5010
vn 0.8668 0.0357 0.4973
vn 0.8660 0.0064 0.5001
vn 0.8674 0.0444 -0.4957
vn 0.8640 0.0340 -0.5024
vn 0.8635 0.0239 -0.5038
vn 0.0348 0.9991 -0.0249
vn 0.0651 0.9979 0.0023
vn 0.0095 0.9996 0.0247
vn 0.0441 0.9862 0.1595
vn -0.0062 0.9982 -0.0602
vn -0.0062 0.9994 0.0330
vn -0.0510 0.9981 0.0333
vt 0.629163 0.274577
vt 1.000000 0.274577
vt 0.629163 0.625412
vt 1.000000 0.625412
vt 0.038734 0.227370
vt 0.035395 0.023026
vt 0.939058 0.017931
vt 0.940292 0.151204
vt 0.922912 0.199704
vt 0.033918 0.057134
vt 0.938980 0.040100
vt 0.917631 0.211704
vt 0.033183 0.091199
vt 0.938820 0.062269
vt 0.924799 0.222549
vt 0.033388 0.125282
vt 0.938687 0.084542
vt 0.937247 0.221395
vt 0.034516 0.159286
vt 0.938836 0.106890
vt 0.942528 0.209396
vt 0.036359 0.193274
vt 0.939407 0.129059
vt 0.935361 0.198550
vt 0.930080 0.210550
vt 0.328266 0.195029
vt 0.326269 0.034296
vt 0.640171 0.183769
vt 0.638679 0.022983
vt 0.638610 0.049856
vt 0.325810 0.061045
vt 0.638722 0.076612
vt 0.325692 0.087869
vt 0.638884 0.103461
vt 0.325925 0.114677
vt 0.639093 0.130279
vt 0.326467 0.141499
vt 0.639476 0.157008
vt 0.327255 0.168358
vt 0.789739 0.173001
vt 0.788770 0.014948
vt 0.788705 0.041341
vt 0.788665 0.067701
vt 0.788633 0.094025
vt 0.788727 0.120366
vt 0.789090 0.146741
vt 0.001323 0.250630
vt 0.635882 0.250630
vt 0.001323 1.001254
vt 0.635882 1.001254
vt 0.004060 0.249022
vt 0.620238 0.249022
vt 0.004060 0.996123
vt 0.620238 0.996123
vt 0.636860 0.259932
vt 1.000000 0.259932
vt 0.636860 0.621535
vt 1.000000 0.621535
vt 0.645528 0.632800
vt 1.000000 0.632800
vt 0.645528 1.000000
vt 1.000000 1.000000
vt 0.634618 0.636436
vt 1.000000 0.636436
vt 0.634618 1.000000
vt 1.000000 1.000000
vt 0.636860 0.259932
vt 1.000000 0.259932
vt 0.636860 0.621535
vt 1.000000 0.621535
vt 0.004060 0.249022
vt 0.620238 0.249022
vt 0.004060 0.996123
vt 0.620238 0.996123
vt 0.636860 0.259932
vt 0.998463 0.259932
vt 0.636860 0.621535
vt 0.998463 0.621535
vt 0.001323 0.250630
vt 0.635882 0.250630
vt 0.001323 1.001254
vt 0.635882 1.001254
s 0
usemtl Material.001
f 1/1/1 2/2/1 4/4/1 3/3/1
s 1
f 30/41/2 6/7/3 8/11/4 31/42/5
f 31/42/5 8/11/4 10/14/6 32/43/7
f 32/43/7 10/14/6 12/17/8 33/44/9
f 33/44/9 12/17/8 14/20/10 34/45/11
f 14/21/10 12/18/8 17/25/12
f 34/45/11 14/20/10 16/23/13 35/46/14
f 35/46/14 16/23/13 6/8/3 30/40/2
f 10/15/6 17/25/12 12/18/8
f 6/9/3 16/24/13 17/25/12
f 8/12/4 6/9/3 17/25/12
f 16/24/13 14/21/10 17/25/12
f 10/15/6 8/12/4 17/25/12
f 15/22/15 29/39/16 18/26/17 5/5/18
f 29/39/16 28/38/19 19/28/20 18/26/17
f 13/19/21 27/37/22 29/39/16 15/22/15
f 27/37/22 26/36/23 28/38/19 29/39/16
f 11/16/24 25/35/25 27/37/22 13/19/21
f 25/35/25 24/34/26 26/36/23 27/37/22
f 9/13/27 23/33/28 25/35/25 11/16/24
f 23/33/28 22/32/29 24/34/26 25/35/25
f 7/10/30 21/31/31 23/33/28 9/13/27
f 21/31/31 20/30/32 22/32/29 23/33/28
f 5/6/18 18/27/17 21/31/31 7/10/30
f 18/27/17 19/29/20 20/30/32 21/31/31
f 28/38/19 35/46/14 30/40/2 19/28/20
f 26/36/23 34/45/11 35/46/14 28/38/19
f 24/34/26 33/44/9 34/45/11 26/36/23
f 22/32/29 32/43/7 33/44/9 24/34/26
f 20/30/32 31/42/5 32/43/7 22/32/29
f 19/29/20 30/41/2 31/42/5 20/30/32
s 0
f 36/47/33 37/48/33 39/50/33 38/49/33
f 40/51/34 41/52/34 43/54/34 42/53/34
f 44/55/35 45/56/35 47/58/35 46/57/35
f 48/59/12 49/60/12 51/62/12 50/61/12
f 52/63/36 53/64/36 55/66/36 54/65/36
f 56/67/37 57/68/37 59/70/37 58/69/37
f 60/71/34 61/72/34 63/74/34 62/73/34
f 64/75/38 65/76/38 67/78/38 66/77/38
f 68/79/39 69/80/39 71/82/39 70/81/39
