# Blender v2.81 (sub 16) OBJ File: 'asphaltTile.blend'
# www.blender.org
mtllib asphaltTile.mtl
o Cube_Cube.001
v -20.000000 0.000000 20.000000
v -20.000000 -4.000000 20.000000
v -20.000000 0.000000 -20.000000
v -20.000000 -4.000000 -20.000000
v 20.000000 0.000000 20.000000
v 20.000000 -4.000000 20.000000
v 20.000000 0.000000 -20.000000
v 20.000000 -4.000000 -20.000000
vt 0.083416 0.083417
vt 0.083417 0.916584
vt 0.000100 0.916584
vt 0.000100 0.083417
vt 0.916584 0.916583
vt 0.916584 0.999900
vt 0.083417 0.999900
vt 0.916583 0.083416
vt 0.999900 0.083416
vt 0.999900 0.916583
vt 0.083416 0.000100
vt 0.916583 0.000100
vn -1.0000 0.0000 0.0000
vn 0.0000 0.0000 -1.0000
vn 1.0000 0.0000 0.0000
vn 0.0000 0.0000 1.0000
vn 0.0000 1.0000 0.0000
usemtl Material
s off
f 1/1/1 3/2/1 4/3/1 2/4/1
f 3/2/2 7/5/2 8/6/2 4/7/2
f 7/5/3 5/8/3 6/9/3 8/10/3
f 5/8/4 1/1/4 2/11/4 6/12/4
f 3/2/5 1/1/5 5/8/5 7/5/5
