# Blender v2.82 (sub 7) OBJ File: 'tree001.blend'
# www.blender.org
mtllib tree001.mtl
o Plane.003
v -1.219588 4.708317 -0.114546
v -0.159855 4.671478 1.191746
v 0.087201 4.765359 -1.172389
v 1.146935 4.728520 0.133903
v -0.000000 0.000001 -0.187034
v 0.031399 5.421097 -0.027052
v 0.161976 0.000000 -0.093517
v 0.057478 5.421097 -0.011996
v 0.161976 0.000000 0.093517
v 0.057478 5.421096 0.018117
v -0.000000 0.000001 0.187034
v 0.031399 5.421096 0.033173
v -0.161976 0.000000 0.093517
v 0.005321 5.421096 0.018117
v -0.161976 0.000000 -0.093517
v 0.005321 5.421097 -0.011996
v 0.031399 5.451596 0.003060
v -0.013239 1.745441 -0.131576
v -0.023519 3.616394 -0.088046
v 0.049000 3.616394 -0.046177
v 0.082550 1.745440 -0.076272
v 0.049000 3.616394 0.037560
v 0.082550 1.745441 0.034337
v -0.023519 3.616395 0.079429
v -0.013239 1.745441 0.089641
v -0.096038 3.616395 0.037560
v -0.109029 1.745441 0.034337
v -0.096038 3.616394 -0.046177
v -0.109029 1.745441 -0.076272
v -0.001400 4.517217 -0.035727
v 0.045914 4.517217 -0.008410
v 0.045914 4.517217 0.046223
v -0.001400 4.517217 0.073540
v -0.048714 4.517217 0.046223
v -0.048714 4.517217 -0.008410
v -1.106642 1.943281 2.377475
v 2.374317 1.798566 1.109884
v -2.376151 1.908639 -1.105279
v 0.925210 1.763924 -1.987132
v -1.440659 2.917567 1.440964
v 1.437748 2.729639 1.443463
v -1.437748 2.923916 -1.443463
v 1.440659 2.735988 -1.440964
v -1.550937 3.885172 0.668146
v 0.667876 3.842301 1.550138
v -0.667876 3.931632 -1.550138
v 1.550937 3.888761 -0.668146
v 0.650588 5.358693 0.232805
v 0.259522 5.358693 -0.623871
v -0.206088 5.358693 0.623871
v -0.597154 5.358693 -0.232805
v -0.585146 5.003775 0.561784
v 0.570594 4.945321 0.603611
v -0.534571 5.186302 -0.580594
v 0.621169 5.127848 -0.538767
v -1.705587 4.277822 0.042034
v -0.027490 4.390406 1.736017
v -0.006369 4.187420 -1.632681
v 1.671727 4.300004 0.061302
v -1.440659 2.917567 1.440964
v 1.437748 2.729639 1.443463
v -1.437748 2.923916 -1.443463
v 1.440659 2.735988 -1.440964
v -2.035539 3.429776 -0.190543
v -0.190088 3.367810 2.033958
v 0.190088 3.504533 -2.033958
v 2.035538 3.442566 0.190543
v -2.273511 2.126073 -0.032083
v 0.032124 2.167605 2.249060
v 0.002343 2.319245 -2.335682
v 2.307978 2.360777 -0.054538
vt 0.629163 0.274577
vt 1.000000 0.274577
vt 1.000000 0.625412
vt 0.629163 0.625412
vt 0.001323 0.250630
vt 0.635882 0.250630
vt 0.635882 1.001254
vt 0.001323 1.001254
vt 0.004060 0.249022
vt 0.620238 0.249022
vt 0.620238 0.996123
vt 0.004060 0.996123
vt 0.636860 0.259932
vt 1.000000 0.259932
vt 1.000000 0.621535
vt 0.636860 0.621535
vt 0.645528 0.632800
vt 1.000000 0.632800
vt 1.000000 1.000000
vt 0.645528 1.000000
vt 0.634618 0.636436
vt 1.000000 0.636436
vt 1.000000 1.000000
vt 0.634618 1.000000
vt 0.636860 0.259932
vt 1.000000 0.259932
vt 1.000000 0.621535
vt 0.636860 0.621535
vt 0.004060 0.249022
vt 0.620238 0.249022
vt 0.620238 0.996123
vt 0.004060 0.996123
vt 0.636860 0.259932
vt 0.998463 0.259932
vt 0.998463 0.621535
vt 0.636860 0.621535
vt 0.001323 0.250630
vt 0.635882 0.250630
vt 0.635882 1.001254
vt 0.001323 1.001254
vt 0.788770 0.014948
vt 0.939058 0.017931
vt 0.938980 0.040100
vt 0.788705 0.041341
vt 0.938820 0.062269
vt 0.788665 0.067701
vt 0.938687 0.084542
vt 0.788633 0.094025
vt 0.938836 0.106890
vt 0.788727 0.120366
vt 0.942528 0.209396
vt 0.937247 0.221395
vt 0.930080 0.210550
vt 0.939407 0.129059
vt 0.789090 0.146741
vt 0.940292 0.151204
vt 0.789739 0.173001
vt 0.924799 0.222549
vt 0.922912 0.199704
vt 0.935361 0.198550
vt 0.917631 0.211704
vt 0.036359 0.193274
vt 0.327255 0.168358
vt 0.328266 0.195029
vt 0.038734 0.227370
vt 0.639476 0.157008
vt 0.640171 0.183769
vt 0.034516 0.159286
vt 0.326467 0.141499
vt 0.639093 0.130279
vt 0.033388 0.125282
vt 0.325925 0.114677
vt 0.638884 0.103461
vt 0.033183 0.091199
vt 0.325692 0.087869
vt 0.638722 0.076612
vt 0.033918 0.057134
vt 0.325810 0.061045
vt 0.638610 0.049856
vt 0.035395 0.023026
vt 0.326269 0.034296
vt 0.638679 0.022983
vn -0.0126 0.9992 0.0384
vn 0.0348 0.9991 -0.0249
vn 0.0651 0.9979 0.0023
vn 0.0095 0.9996 0.0247
vn 0.0000 1.0000 -0.0000
vn 0.0441 0.9862 0.1595
vn -0.0062 0.9982 -0.0602
vn -0.0062 0.9994 0.0330
vn -0.0510 0.9981 0.0333
vn -0.0016 0.0342 -0.9994
vn 0.0068 0.3471 -0.9378
vn 0.8157 0.3368 -0.4703
vn 0.8685 0.0052 -0.4956
vn 0.8161 0.3447 0.4639
vn 0.8625 0.0015 0.5059
vn 0.0069 0.3633 0.9316
vn -0.0016 0.0255 0.9997
vn -0.8029 0.3739 0.4642
vn -0.8621 0.0535 0.5038
vn -0.8028 0.3657 -0.4709
vn -0.8679 0.0583 -0.4933
vn -0.8666 0.0312 -0.4979
vn -0.8644 0.0227 -0.5022
vn -0.0004 0.0275 -0.9996
vn 0.0023 0.0318 -0.9995
vn -0.8654 0.0399 -0.4994
vn -0.0046 0.0405 -0.9991
vn -0.8630 0.0432 0.5033
vn -0.8673 0.0243 0.4971
vn -0.8680 0.0229 0.4959
vn 0.0023 0.0557 0.9984
vn -0.0004 0.0308 0.9995
vn -0.0048 0.0061 1.0000
vn 0.8636 0.0563 0.5010
vn 0.8668 0.0357 0.4973
vn 0.8660 0.0064 0.5000
vn 0.8674 0.0443 -0.4957
vn 0.8639 0.0340 -0.5024
vn 0.8635 0.0239 -0.5038
usemtl Material.001
s off
f 1/1/1 2/2/1 4/3/1 3/4/1
f 36/5/2 37/6/2 39/7/2 38/8/2
f 40/9/3 41/10/3 43/11/3 42/12/3
f 44/13/4 45/14/4 47/15/4 46/16/4
f 48/17/5 49/18/5 51/19/5 50/20/5
f 52/21/6 53/22/6 55/23/6 54/24/6
f 56/25/7 57/26/7 59/27/7 58/28/7
f 60/29/3 61/30/3 63/31/3 62/32/3
f 64/33/8 65/34/8 67/35/8 66/36/8
f 68/37/9 69/38/9 71/39/9 70/40/9
s 1
f 30/41/10 6/42/11 8/43/12 31/44/13
f 31/44/13 8/43/12 10/45/14 32/46/15
f 32/46/15 10/45/14 12/47/16 33/48/17
f 33/48/17 12/47/16 14/49/18 34/50/19
f 14/51/18 12/52/16 17/53/5
f 34/50/19 14/49/18 16/54/20 35/55/21
f 35/55/21 16/54/20 6/56/11 30/57/10
f 10/58/14 17/53/5 12/52/16
f 6/59/11 16/60/20 17/53/5
f 8/61/12 6/59/11 17/53/5
f 16/60/20 14/51/18 17/53/5
f 10/58/14 8/61/12 17/53/5
f 15/62/22 29/63/23 18/64/24 5/65/25
f 29/63/23 28/66/26 19/67/27 18/64/24
f 13/68/28 27/69/29 29/63/23 15/62/22
f 27/69/29 26/70/30 28/66/26 29/63/23
f 11/71/31 25/72/32 27/69/29 13/68/28
f 25/72/32 24/73/33 26/70/30 27/69/29
f 9/74/34 23/75/35 25/72/32 11/71/31
f 23/75/35 22/76/36 24/73/33 25/72/32
f 7/77/37 21/78/38 23/75/35 9/74/34
f 21/78/38 20/79/39 22/76/36 23/75/35
f 5/80/25 18/81/24 21/78/38 7/77/37
f 18/81/24 19/82/27 20/79/39 21/78/38
f 28/66/26 35/55/21 30/57/10 19/67/27
f 26/70/30 34/50/19 35/55/21 28/66/26
f 24/73/33 33/48/17 34/50/19 26/70/30
f 22/76/36 32/46/15 33/48/17 24/73/33
f 20/79/39 31/44/13 32/46/15 22/76/36
f 19/82/27 30/41/10 31/44/13 20/79/39
