# Blender 3.4.1
# www.blender.org
mtllib mailbox.mtl
g Mailbox_Mesh
v 1.000000 3.056213 -1.000000
v 1.000000 0.000000 -1.000000
v 1.000000 3.056213 1.000000
v 1.000000 0.000000 1.000000
v -1.000000 3.056213 -1.000000
v -1.000000 0.000000 -1.000000
v -1.000000 3.056213 1.000000
v -1.000000 0.000000 1.000000
v 1.000000 3.749874 0.617830
v -1.000000 3.749874 0.617830
v 1.000000 3.749874 -0.617830
v -1.000000 3.749874 -0.617830
v -1.000000 0.000000 0.000000
v 1.000000 3.056213 0.000000
v -1.000000 3.056213 0.000000
v 1.000000 0.000000 0.000000
v 1.000000 3.927373 0.000000
v -1.000000 3.927373 0.000000
vn 0.6551 0.1882 -0.7317
vn -0.6551 0.1882 -0.7317
vn -0.6301 0.6070 -0.4843
vn 0.6301 0.6070 -0.4843
vn 0.5774 -0.5774 0.5774
vn 0.6551 0.1882 0.7317
vn -0.6551 0.1882 0.7317
vn -0.5774 -0.5774 0.5774
vn -1.0000 -0.0000 -0.0000
vn -0.0000 -1.0000 -0.0000
vn 1.0000 -0.0000 -0.0000
vn -0.5774 -0.5774 -0.5774
vn 0.5774 -0.5774 -0.5774
vn 0.6499 0.7600 -0.0000
vn -0.6499 0.7600 -0.0000
vn -0.6301 0.6070 0.4843
vn 0.6301 0.6070 0.4843
vt 0.032878 0.731534
vt 0.986727 0.834371
vt 0.032878 0.032876
vt 0.986728 0.029591
vt 0.367709 0.007832
vt 0.478153 0.731534
vt 0.546027 0.834371
vt 0.478153 0.032876
vt 0.367709 0.257832
vt 0.546026 0.029591
vt 0.478153 0.731534
vt 0.546027 0.834371
vt 0.546026 0.029591
vt 0.478153 0.032876
vt 0.117709 0.007832
vt 0.032878 0.731534
vt 0.986727 0.834371
vt 0.032878 0.032876
vt 0.117709 0.257832
vt 0.986728 0.029591
vt 0.478153 0.896920
vt 0.630238 0.954740
vt 0.032878 0.896920
vt 0.900963 0.954740
vt 0.902516 0.954740
vt 0.032878 0.896920
vt 0.630238 0.954740
vt 0.478153 0.896920
vt 0.117709 0.132832
vt 0.766377 0.029591
vt 0.766377 0.834370
vt 0.766966 0.834370
vt 0.766377 0.029591
vt 0.367709 0.132832
vt 0.478153 0.985350
vt 0.766377 0.999929
vt 0.032878 0.985350
vt 0.032878 0.985350
vt 0.766966 0.999929
vt 0.478153 0.985350
s 1
usemtl Material
f 1/1/1 5/11/2 12/28/3 11/26/4
f 4/8/5 3/6/6 7/16/7 8/18/8
s 0
f 13/30/9 15/32/9 5/12/9 6/13/9
f 13/29/10 16/34/10 4/9/10 8/19/10
f 16/33/11 14/31/11 3/7/11 4/10/11
s 1
f 6/14/12 5/11/2 1/1/1 2/3/13
f 17/35/14 18/38/15 10/23/16 9/21/17
f 7/16/7 3/6/6 9/21/17 10/23/16
s 0
f 15/32/9 7/17/9 10/24/9 18/39/9
f 14/31/11 1/2/11 11/25/11 17/36/11
f 3/7/11 14/31/11 17/36/11 9/22/11
f 5/12/9 15/32/9 18/39/9 12/27/9
s 1
f 11/26/4 12/28/3 18/40/15 17/37/14
s 0
f 2/4/11 1/2/11 14/31/11 16/33/11
f 6/15/10 2/5/10 16/34/10 13/29/10
f 8/20/9 7/17/9 15/32/9 13/30/9
