# Blender 3.4.1
# www.blender.org
mtllib truck2.mtl
g Truck2_Mesh
v -19.500000 -0.112832 44.549999
v 19.500000 -0.112832 44.549999
v 19.500000 12.723077 44.550003
v -19.500000 12.723077 44.550003
v 19.500000 12.723092 -44.549995
v -19.500000 12.723092 -44.549995
v 19.500000 -0.112818 -44.549999
v -19.500000 -0.112818 -44.549999
v -14.086634 31.086819 -44.844078
v 14.086634 31.086819 -44.844078
v 14.086634 31.086821 -62.988453
v -14.086634 31.086821 -62.988453
v 15.650000 19.663847 -68.775833
v -15.650000 19.663847 -68.775833
v 15.650000 19.663843 -44.844078
v -15.650000 19.663843 -44.844078
v -15.650000 -0.213176 -68.775833
v -15.650000 -0.213180 -44.844082
v 15.650000 -0.213180 -44.844082
v 15.650000 -0.213176 -68.775833
vn -0.0000 -0.0000 1.0000
vn -0.0000 1.0000 -0.0000
vn -0.0000 -0.0000 -1.0000
vn 1.0000 -0.0000 -0.0000
vn -1.0000 -0.0000 -0.0000
vn -0.3433 0.7773 0.5273
vn 0.3433 0.7773 0.5273
vn 0.3533 0.8384 -0.4151
vn -0.3533 0.8384 -0.4151
vn 0.5604 0.1581 -0.8130
vn -0.5604 0.1581 -0.8130
vn 0.6088 0.0280 0.7928
vn -0.6088 0.0280 0.7928
vn -0.6074 0.0001 -0.7944
vn -0.6074 -0.0000 0.7944
vn 0.6074 0.0001 0.7944
vn 0.6074 -0.0000 -0.7944
vt 0.784448 0.263942
vt 0.550071 0.029562
vt 0.784446 0.498320
vt 0.550066 0.732696
vt 0.707306 0.498319
vt 0.550068 0.988566
vt 0.550067 0.655556
vt 0.707308 0.263941
vt 0.550070 0.754188
vt 0.550071 0.106702
vt 0.014604 0.988563
vt 0.637427 0.256128
vt 0.014603 0.655553
vt 0.014606 0.754184
vt 0.637429 0.021750
vt 0.014607 0.106698
vt 0.560287 0.256128
vt 0.014602 0.732693
vt 0.560289 0.021750
vt 0.014607 0.029558
vt 0.653456 0.695149
vt 0.801200 0.841912
vt 0.990106 0.248791
vt 0.653456 0.511060
vt 0.801200 0.364291
vt 0.809829 0.248791
vt 0.801200 0.511060
vt 0.801200 0.485137
vt 0.801200 0.695149
vt 0.801200 0.721071
vt 0.870907 0.511060
vt 0.870907 0.695149
vt 0.870907 0.364291
vt 0.805214 0.169619
vt 0.870907 0.841912
vt 0.994721 0.169619
vt 0.986864 0.695149
vt 0.986864 0.841912
vt 0.994721 0.031853
vt 0.986864 0.364291
vt 0.805214 0.031853
vt 0.986864 0.511060
s 0
usemtl blinn5SG
f 1/1/1 2/3/1 3/5/1 4/8/1
f 4/9/2 3/6/2 5/11/2 6/14/2
f 6/15/3 5/12/3 7/17/3 8/19/3
f 2/4/4 7/18/4 5/13/4 3/7/4
f 8/20/5 1/2/5 4/10/5 6/16/5
s 1
f 9/21/6 10/24/7 11/27/8 12/29/9
f 12/29/9 11/27/8 13/31/10 14/32/11
f 15/33/12 13/31/10 11/28/8 10/25/7
f 14/32/11 16/35/13 9/22/6 12/30/9
f 17/37/14 18/38/15 16/35/13 14/32/11
f 19/40/16 20/42/17 13/31/10 15/33/12
f 14/32/11 13/31/10 20/42/17 17/37/14
f 10/26/7 9/23/6 16/36/13 15/34/12
f 15/34/12 16/36/13 18/39/15 19/41/16
