# Blender v2.82 (sub 7) OBJ File: 'box002.blend'
# www.blender.org
mtllib box002.mtl
o Cube
v 0.961545 0.909136 -1.037516
v 0.896726 -0.979907 -0.891584
v 1.075248 0.861910 0.952140
v 0.994803 -1.021242 0.999761
v -0.948306 0.898846 -0.989898
v -0.987798 -0.981765 -0.962151
v -0.904552 0.912927 1.075087
v -0.891529 -0.998851 0.891823
vt 0.003839 0.505532
vt 0.494114 0.505532
vt 0.494114 0.995807
vt 0.003839 0.995807
vt 0.491389 0.005580
vt 0.491389 0.494342
vt 0.002627 0.494342
vt 0.002627 0.005580
vt 0.503586 0.507247
vt 0.992477 0.507247
vt 0.992477 0.996138
vt 0.503586 0.996138
vt 0.003075 0.505398
vt 0.493618 0.505398
vt 0.493618 0.995941
vt 0.003075 0.995941
vt 0.504346 0.508637
vt 0.991717 0.508637
vt 0.991717 0.996009
vt 0.504346 0.996009
vt 0.992890 0.004472
vt 0.992891 0.497497
vt 0.499865 0.497497
vt 0.499865 0.004472
vn 0.0108 0.9999 0.0078
vn 0.0032 -0.0358 0.9994
vn -0.9993 0.0055 0.0357
vn -0.0047 -0.9999 -0.0154
vn 0.9976 -0.0413 -0.0554
vn 0.0062 -0.0462 -0.9989
usemtl Material
s off
f 1/1/1 5/2/1 7/3/1 3/4/1
f 4/5/2 3/6/2 7/7/2 8/8/2
f 8/9/3 7/10/3 5/11/3 6/12/3
f 6/13/4 2/14/4 4/15/4 8/16/4
f 2/17/5 1/18/5 3/19/5 4/20/5
f 6/21/6 5/22/6 1/23/6 2/24/6
