# Blender v2.82 (sub 7) OBJ File: 'box003.blend'
# www.blender.org
mtllib box003.mtl
o Cube
v 1.027418 1.321516 -0.971809
v 1.000000 -1.000000 -1.000000
v 0.973047 1.321251 1.055209
v 1.000000 -1.000000 1.000000
v -0.971809 1.321516 -1.027418
v -0.959487 -1.000000 -0.974886
v -1.045928 1.349477 0.956641
v -1.000000 -1.000000 1.000000
v 1.027418 1.321516 -0.971809
v 0.973047 1.321251 1.055209
v -0.971809 1.321516 -1.027418
v -1.045928 1.349477 0.956641
vt 0.509431 0.491549
vt 0.986853 0.491121
vt 0.986853 0.491121
vt 0.509431 0.491549
vt 0.493222 0.013829
vt 0.494318 0.493086
vt 0.005138 0.493086
vt 0.005377 0.012913
vt 0.993260 0.008260
vt 0.516592 0.007934
vt 0.506558 0.509981
vt 0.990685 0.521897
vt 0.992518 0.997774
vt 0.507474 0.994108
vt 0.992365 0.007630
vt 0.986712 0.490102
vt 0.508548 0.489776
vt 0.515709 0.007681
vt 0.495599 0.012375
vt 0.494583 0.493405
vt 0.005324 0.492568
vt 0.005324 0.012375
vt 0.007125 0.507175
vt 0.494533 0.512972
vt 0.490828 0.994164
vt 0.014804 0.988854
vt 0.986712 0.490102
vt 0.508548 0.489776
vt 0.494583 0.493405
vt 0.005324 0.492568
vt 0.494318 0.493086
vt 0.005138 0.493086
vn 0.0000 0.0000 1.0000
vn -0.0245 -0.0029 0.9997
vn -0.9995 -0.0131 -0.0288
vn 0.0000 -1.0000 0.0000
vn 0.9999 -0.0003 0.0135
vn 0.0077 -0.0053 -1.0000
vn 0.0073 1.0000 -0.0067
usemtl Material
s off
f 5/1/1 7/2/1 12/3/1 11/4/1
f 4/5/2 3/6/2 7/7/2 8/8/2
f 8/9/3 7/2/3 5/1/3 6/10/3
f 6/11/4 2/12/4 4/13/4 8/14/4
f 2/15/5 1/16/5 3/17/5 4/18/5
f 6/19/6 5/20/6 1/21/6 2/22/6
f 9/23/7 11/24/7 12/25/7 10/26/7
f 3/17/1 1/16/1 9/27/1 10/28/1
f 1/21/1 5/20/1 11/29/1 9/30/1
f 7/7/1 3/6/1 10/31/1 12/32/1
