# Blender 3.4.1
# www.blender.org
mtllib box001.mtl
g Box001_Mesh
v 2.025131 0.915266 -1.046605
v 1.879148 -1.000000 -1.000000
v 1.957560 0.922007 0.978342
v 1.775496 -0.972138 1.005293
v -1.857153 0.983336 -0.850200
v -1.879148 -1.000000 -1.000000
v -1.778394 1.031781 1.014456
v -1.867751 -0.939976 0.975153
vn 0.0229 0.9996 -0.0142
vn 0.0007 -0.0032 1.0000
vn -0.9994 0.0271 0.0227
vn -0.0044 -0.9997 0.0220
vn 0.9955 -0.0849 0.0430
vn -0.0254 0.0275 -0.9993
vt 0.747034 0.520876
vt 0.990031 0.520876
vt 0.747034 0.730820
vt 0.747034 0.270919
vt 0.747034 0.034880
vt 0.747034 0.951202
vt 0.990031 0.270919
vt 0.232647 0.520876
vt 0.000087 0.520876
vt 0.232647 0.730820
vt 0.232647 0.270919
vt 0.232647 0.034880
vt 0.000087 0.270919
vt 0.232647 0.951202
s 0
usemtl Material
f 1/1/1 5/8/1 7/11/1 3/4/1
f 4/5/2 3/4/2 7/11/2 8/12/2
f 8/13/3 7/11/3 5/8/3 6/9/3
f 6/10/4 2/3/4 4/6/4 8/14/4
f 2/2/5 1/1/5 3/4/5 4/7/5
f 6/10/6 5/8/6 1/1/6 2/3/6
