# Blender v2.81 (sub 16) OBJ File: 'lightPost.blend'
# www.blender.org
mtllib lightPost2.mtl
o Cylinder.001_Cylinder.007
v -0.000000 3.675269 1.204154
v 0.000000 9.999534 4.459031
v 2.445917 3.675269 2.217286
v 0.144371 9.999534 4.518831
v 3.459049 3.675269 4.663204
v 0.204172 9.999534 4.663202
v 2.445917 3.675269 7.109121
v 0.144371 9.999534 4.807573
v -0.000001 3.675269 8.122253
v 0.000000 9.999534 4.867374
v -2.445919 3.675269 7.109119
v -0.144371 9.999534 4.807573
v -3.459050 3.675269 4.663200
v -0.204171 9.999534 4.663202
v -2.445915 3.675269 2.217283
v -0.144371 9.999534 4.518831
vt 0.750000 1.000000
vt 0.625000 1.000000
vt 0.625000 0.002315
vt 0.750000 0.002315
vt 0.500000 1.000000
vt 0.500000 0.002315
vt 0.375000 1.000000
vt 0.375000 0.002315
vt 0.250000 1.000000
vt 0.250000 0.002315
vt 0.125000 1.000000
vt 0.125000 0.002315
vt 0.000000 1.000000
vt 0.000000 0.002315
vt 1.000000 1.000000
vt 0.875000 1.000000
vt 0.875000 0.002315
vt 1.000000 0.002315
vn 0.8891 0.4576 0.0000
vn 0.6287 0.4576 0.6287
vn 0.0000 0.4576 0.8891
vn -0.6287 0.4576 0.6287
vn -0.8891 0.4576 0.0000
vn -0.6287 0.4576 -0.6287
vn 0.0000 0.4576 -0.8891
vn 0.6287 0.4576 -0.6287
usemtl Material.002
s 1
f 6/1/1 8/2/2 7/3/2 5/4/1
f 8/2/2 10/5/3 9/6/3 7/3/2
f 10/5/3 12/7/4 11/8/4 9/6/3
f 12/7/4 14/9/5 13/10/5 11/8/4
f 14/9/5 16/11/6 15/12/6 13/10/5
f 16/11/6 2/13/7 1/14/7 15/12/6
f 2/15/7 4/16/8 3/17/8 1/18/7
f 4/16/8 6/1/1 5/4/1 3/17/8
