# Blender v2.81 (sub 16) OBJ File: 'lightPost.blend'
# www.blender.org
mtllib lightPost.mtl
o Grid
v -0.304350 0.000000 0.418903
v 0.304351 0.000000 0.418903
v -0.492450 0.000000 -0.160007
v 0.492449 0.000000 -0.160007
v 0.000000 0.000000 -0.517792
v -0.141700 1.388355 -0.046041
v -0.087576 1.388355 0.120537
v 0.087576 1.388355 0.120537
v 0.141700 1.388355 -0.046041
v 0.000000 1.388355 -0.148993
v -0.267335 1.388355 -0.086862
v -0.165222 1.388355 0.227409
v 0.165222 1.388355 0.227409
v 0.267335 1.388355 -0.086862
v 0.000000 1.388355 -0.281093
v -0.106107 10.425561 -0.034476
v -0.065578 10.425561 0.090260
v 0.065577 10.425561 0.090260
v 0.106106 10.425561 -0.034476
v -0.000001 10.425561 -0.111567
v -0.133668 10.428871 -0.043431
v -0.082612 10.428871 0.113705
v 0.082611 10.428871 0.113705
v 0.133667 10.428871 -0.043431
v -0.000001 10.428871 -0.140547
v -0.112396 10.503816 -0.036519
v -0.069465 10.503816 0.095609
v 0.069464 10.503816 0.095609
v 0.112395 10.503816 -0.036519
v -0.000000 10.503816 -0.118180
v -0.000000 10.555655 -0.000000
v 0.045661 10.105277 4.209077
v 0.058518 9.376947 0.053191
v 0.000000 9.142891 0.053191
v -0.045661 10.105277 4.209077
v 0.000000 10.013956 4.209077
v -0.058518 9.376947 0.053191
v 0.052157 10.058107 2.095854
v 0.000000 9.930931 2.109261
v -0.052157 10.058107 2.095854
v 0.000000 9.655817 1.092280
v -0.055303 9.800360 1.057258
v 0.055303 9.800360 1.057257
v 0.048909 10.119956 3.159169
v 0.000000 10.010708 3.159169
v -0.048909 10.119956 3.159169
v -0.236181 9.999534 4.710187
v -0.168491 10.198854 4.710187
v -0.106196 9.999534 4.200190
v -0.062162 10.128663 4.200190
v 0.236181 9.999534 4.710187
v 0.168491 10.198854 4.710187
v 0.106196 9.999534 4.200190
v 0.062162 10.128663 4.200190
v -0.114340 9.999534 5.001339
v -0.078391 10.155864 4.935953
v 0.078391 10.155864 4.935953
v 0.114340 9.999534 5.001339
v -0.000000 0.000000 -0.000000
vt 0.151033 0.699951
vt 0.225522 0.699951
vt 0.225522 0.909425
vt 0.151033 0.909425
vt 0.009268 0.699951
vt 0.077998 0.699951
vt 0.077998 0.909424
vt 0.009268 0.909424
vt 0.298558 0.699951
vt 0.298558 0.909425
vt 0.367288 0.699951
vt 0.367288 0.909425
vt 0.193930 0.923592
vt 0.260804 0.923592
vt 0.260804 0.989319
vt 0.193930 0.989319
vt 0.128666 0.923592
vt 0.128666 0.989319
vt 0.066120 0.923592
vt 0.066120 0.989319
vt 0.007185 0.923592
vt 0.007185 0.989319
vt 0.327391 0.923592
vt 0.327391 0.989319
vt 0.006151 0.295531
vt 0.993968 0.295531
vt 0.993902 0.313944
vt 0.006074 0.313944
vt 0.006035 0.332357
vt 0.993869 0.332357
vt 0.993869 0.350770
vt 0.006032 0.350770
vt 0.006065 0.369183
vt 0.993902 0.369183
vt 0.993968 0.387595
vt 0.006136 0.387595
vt 0.940446 0.763138
vt 0.904332 0.812844
vt 0.915055 0.848043
vt 0.976741 0.763138
vt 0.815243 0.815612
vt 0.842134 0.796075
vt 0.904783 0.816431
vt 0.845900 0.732419
vt 0.904332 0.713433
vt 0.915054 0.678234
vt 0.815243 0.710665
vt 0.845900 0.793858
vt 0.943502 0.763138
vt 0.904783 0.709846
vt 0.842134 0.730202
vt 0.887467 0.763138
vt 0.375000 0.250000
vt 0.625000 0.500000
vt 0.375000 0.500000
vt 0.638053 0.963901
vt 0.668690 0.925002
vt 0.704949 0.925002
vt 0.735095 0.963901
vt 0.530171 0.955706
vt 0.456177 0.955706
vt 0.410893 0.820568
vt 0.575455 0.820568
vt 0.453340 0.743419
vt 0.533008 0.743419
vt 0.954616 0.890562
vt 0.954616 0.950886
vt 0.913101 0.920724
vt 0.897244 0.969528
vt 0.861786 0.920724
vt 0.897244 0.871920
vt 0.738221 0.582205
vt 0.738221 0.544321
vt 0.995501 0.544321
vt 0.995501 0.582205
vt 0.254314 0.622466
vt 0.254818 0.660358
vt 0.005920 0.660358
vt 0.006305 0.622466
vt 0.375000 0.750000
vt 0.625000 1.000000
vt 0.375000 1.000000
vt 0.254329 0.582205
vt 0.006296 0.582205
vt 0.738221 0.622466
vt 0.498520 0.622466
vt 0.498520 0.582205
vt 0.738221 0.660358
vt 0.498520 0.660358
vt 0.254817 0.544321
vt 0.498520 0.544321
vt 0.995501 0.622466
vt 0.995501 0.660358
vt 0.005896 0.544321
vt 0.596118 0.818982
vt 0.652361 0.830027
vt 0.721278 0.830027
vt 0.777030 0.818982
vt 0.666446 0.780537
vt 0.707193 0.780537
vt 0.737913 0.736418
vt 0.635235 0.736418
vn 0.0000 0.1366 0.9906
vn -0.5823 0.1366 -0.8014
vn 0.9421 0.1366 0.3061
vn -0.9421 0.1366 0.3061
vn 0.5823 0.1366 -0.8014
vn 0.0000 1.0000 0.0000
vn 0.5878 0.0034 -0.8090
vn 0.0000 0.0034 1.0000
vn -0.5878 0.0034 -0.8090
vn 0.9511 0.0034 0.3090
vn 0.0822 -0.9902 -0.1131
vn -0.5714 0.2347 -0.7864
vn 0.0000 -0.9902 0.1398
vn -0.0822 -0.9902 -0.1131
vn 0.1330 -0.9902 0.0432
vn -0.1330 -0.9902 0.0432
vn 0.9245 0.2347 0.3004
vn -0.9245 0.2347 0.3004
vn 0.5714 0.2347 -0.7864
vn 0.0000 0.2347 0.9721
vn -0.4533 0.8791 0.1473
vn 0.0000 0.8791 0.4767
vn 0.4533 0.8791 0.1473
vn 0.2802 0.8791 -0.3856
vn -0.2802 0.8791 -0.3856
vn -0.9511 0.0034 0.3090
vn 0.0000 0.0000 -1.0000
vn 0.0000 -1.0000 0.0000
vn 0.7977 0.5733 -0.1872
vn 0.0000 -0.9414 0.3371
vn 0.0000 -0.9503 -0.3113
vn 0.6977 0.3394 -0.6308
vn -0.8307 0.5567 -0.0085
vn 0.0000 -0.9994 0.0334
vn 0.0000 -0.8235 0.5672
vn -0.7051 0.4417 0.5547
vn 0.7051 0.4417 0.5547
vn 0.8307 0.5567 -0.0085
vn -0.7977 0.5733 -0.1872
vn -0.8074 0.5836 -0.0864
vn 0.8074 0.5836 -0.0864
vn 0.0000 -0.9866 0.1631
vn -0.6977 0.3394 -0.6308
vn -0.8574 -0.5103 0.0661
vn -0.6115 0.7890 0.0598
vn -0.4046 0.6113 -0.6801
vn -0.5885 -0.5051 -0.6313
vn 0.5885 -0.5051 -0.6313
vn 0.4046 0.6113 -0.6801
vn 0.6115 0.7890 0.0598
vn 0.8574 -0.5103 0.0661
vn -0.3778 0.7038 0.6015
vn 0.3778 0.7038 0.6015
vn 0.4850 -0.4407 0.7553
vn -0.4850 -0.4407 0.7553
usemtl Material.001
s off
f 1/1/1 2/2/1 13/3/1 12/4/1
f 5/5/2 3/6/2 11/7/2 15/8/2
f 2/2/3 4/9/3 14/10/3 13/3/3
f 3/6/4 1/1/4 12/4/4 11/7/4
f 4/9/5 5/11/5 15/12/5 14/10/5
f 7/13/6 6/14/6 11/15/6 12/16/6
f 8/17/6 7/13/6 12/16/6 13/18/6
f 9/19/6 8/17/6 13/18/6 14/20/6
f 10/21/6 9/19/6 14/20/6 15/22/6
f 6/14/6 10/23/6 15/24/6 11/15/6
f 10/25/7 20/26/7 19/27/7 9/28/7
f 8/29/8 18/30/8 17/31/8 7/32/8
f 6/33/9 16/34/9 20/35/9 10/36/9
f 9/28/10 19/27/10 18/30/10 8/29/10
f 19/37/11 20/38/11 25/39/11 24/40/11
f 25/39/12 21/41/12 26/42/12 30/43/12
f 17/44/13 18/45/13 23/46/13 22/47/13
f 20/38/14 16/48/14 21/41/14 25/39/14
f 18/45/15 19/37/15 24/40/15 23/46/15
f 16/48/16 17/44/16 22/47/16 21/41/16
f 23/46/17 24/40/17 29/49/17 28/50/17
f 21/41/18 22/47/18 27/51/18 26/42/18
f 24/40/19 25/39/19 30/43/19 29/49/19
f 22/47/20 23/46/20 28/50/20 27/51/20
f 26/42/21 27/51/21 31/52/21
f 27/51/22 28/50/22 31/52/22
f 28/50/23 29/49/23 31/52/23
f 29/49/24 30/43/24 31/52/24
f 30/43/25 26/42/25 31/52/25
f 7/32/26 17/31/26 16/34/26 6/33/26
f 33/53/27 34/54/27 37/55/27
f 49/56/27 50/57/27 54/58/27 53/59/27
f 49/60/28 53/61/28 51/62/28 47/63/28
f 47/63/28 51/62/28 58/64/28 55/65/28
f 3/66/28 5/67/28 59/68/28
f 5/67/28 4/69/28 59/68/28
f 4/69/28 2/70/28 59/68/28
f 2/70/28 1/71/28 59/68/28
f 1/71/28 3/66/28 59/68/28
s 1
f 43/72/29 41/73/30 34/74/31 33/75/32
f 46/76/33 45/77/34 36/78/35 35/79/36
f 35/80/36 36/81/35 32/82/37
f 44/83/38 46/76/33 35/79/36 32/84/37
f 43/72/29 42/85/39 40/86/40 38/87/41
f 42/85/39 41/88/30 39/89/42 40/86/40
f 44/83/38 45/90/34 39/91/42 38/87/41
f 37/92/43 34/93/31 41/88/30 42/85/39
f 33/75/32 37/92/43 42/85/39 43/72/29
f 38/87/41 39/91/42 41/73/30 43/72/29
f 32/84/37 36/94/35 45/90/34 44/83/38
f 38/87/41 40/86/40 46/76/33 44/83/38
f 40/86/40 39/89/42 45/77/34 46/76/33
f 47/95/44 48/96/45 50/57/46 49/56/47
f 53/59/48 54/58/49 52/97/50 51/98/51
f 52/97/50 48/96/45 56/99/52 57/100/53
f 54/58/49 50/57/46 48/96/45 52/97/50
f 58/101/54 57/100/53 56/99/52 55/102/55
f 51/98/51 52/97/50 57/100/53 58/101/54
f 48/96/45 47/95/44 55/102/55 56/99/52
