# Blender v2.82 (sub 7) OBJ File: 'stairs001.blend'
# www.blender.org
mtllib stairs001.mtl
o steps_Cube
v 5.000000 0.002693 8.000000
v 1.000000 -0.002693 8.000000
v 5.000000 4.901698 0.000000
v 1.000000 4.901698 0.000000
v 1.000000 4.901698 1.000000
v 1.000000 5.514410 1.000000
v 5.000000 5.514410 1.000000
v 5.000000 5.514410 0.000000
v 1.000000 5.514410 0.000000
v 5.000000 4.901698 1.000000
v 5.000000 4.901698 2.000000
v 1.000000 4.288986 2.000000
v 1.000000 4.901698 2.000000
v 5.000000 4.288986 2.000000
v 1.000000 3.676274 3.000000
v 1.000000 4.288986 3.000000
v 5.000000 4.288986 3.000000
v 5.000000 3.676273 3.000000
v 1.000000 3.063561 4.000000
v 1.000000 3.676274 4.000000
v 5.000000 3.676273 4.000000
v 5.000000 3.063561 4.000000
v 1.000000 2.450849 5.000000
v 1.000000 3.063561 5.000000
v 5.000000 3.063561 5.000000
v 5.000000 2.450849 5.000000
v 1.000000 1.838137 6.000000
v 1.000000 2.450849 6.000000
v 5.000000 2.450849 6.000000
v 5.000000 1.838137 6.000000
v 1.000000 1.225425 7.000000
v 1.000000 1.838137 7.000000
v 5.000000 1.838137 7.000000
v 5.000000 1.225424 7.000000
v 1.000000 0.612712 8.000000
v 1.000000 1.225425 8.000000
v 5.000000 1.225424 8.000000
v 5.000000 0.612712 8.000000
v 5.000000 0.612712 9.000000
v 5.000000 0.000000 9.000000
v 1.000000 0.000000 9.000000
v 1.000000 0.612712 9.000000
v 4.893856 3.058524 8.571269
v 4.883713 3.171613 8.563313
v 4.893828 7.960585 0.457253
v 4.878213 8.067820 0.447501
v 4.943101 3.058524 8.571269
v 4.953244 3.171613 8.563313
v 4.943121 7.960488 0.457273
v 4.958961 8.067616 0.447489
v 4.862215 8.059927 -0.194342
v 4.872953 7.988324 -0.204896
v 4.948104 7.980393 -0.179895
v 4.956583 8.068564 -0.180094
v 4.880361 3.058501 9.175379
v 4.874507 3.173111 9.181213
v 4.962450 3.173111 9.181213
v 4.956596 3.058501 9.175379
v 1.066600 3.058523 8.571270
v 1.056475 3.171646 8.563278
v 1.066565 8.001840 0.444241
v 1.050943 8.108994 0.434437
v 1.115846 3.058523 8.571270
v 1.125971 3.171646 8.563278
v 1.115870 8.001694 0.444341
v 1.131685 8.108799 0.434505
v 1.033750 8.101171 -0.205326
v 1.054137 8.003061 -0.220532
v 1.115859 8.001537 -0.189652
v 1.129239 8.109806 -0.189807
v 1.053106 3.058500 9.175379
v 1.047252 3.173110 9.181213
v 1.135195 3.173110 9.181213
v 1.129341 3.058500 9.175379
v 4.944455 3.128631 8.474024
v 4.944455 0.612712 8.474024
v 4.944455 3.128631 8.525976
v 4.944455 0.612712 8.525976
v 4.892502 3.128631 8.474024
v 4.892502 0.612712 8.474024
v 4.892502 3.128631 8.525976
v 4.892502 0.612712 8.525976
v 4.944455 8.030329 0.430912
v 4.944455 5.514410 0.430912
v 4.944455 8.030329 0.482865
v 4.944455 5.514410 0.482865
v 4.892502 8.030329 0.430912
v 4.892502 5.514410 0.430912
v 4.892502 8.030329 0.482865
v 4.892502 5.514410 0.482865
v 1.109438 3.128631 8.474024
v 1.109438 0.612712 8.474024
v 1.109438 3.128631 8.525976
v 1.109438 0.612712 8.525976
v 1.057486 3.128631 8.474024
v 1.057486 0.612712 8.474024
v 1.057486 3.128631 8.525976
v 1.057486 0.612712 8.525976
v 1.109439 8.030329 0.430912
v 1.109439 5.514410 0.430912
v 1.109439 8.030329 0.482865
v 1.109439 5.514410 0.482865
v 1.057486 8.030329 0.430912
v 1.057486 5.514410 0.430912
v 1.057486 8.030329 0.482865
v 1.057486 5.514410 0.482865
vt 0.179130 0.432368
vt 0.179130 0.242425
vt 0.226616 0.242425
vt 0.226616 0.432369
vt 0.255711 0.432369
vt 0.255711 0.242425
vt 0.508004 0.692924
vt 0.508719 0.721365
vt 0.463254 0.721365
vt 0.462538 0.692924
vt 0.863607 0.967042
vt 0.863404 0.993221
vt 0.820949 0.993221
vt 0.821152 0.967042
vt 0.303197 0.242425
vt 0.303197 0.432369
vt 0.778797 0.967042
vt 0.778797 0.940200
vt 0.332292 0.432369
vt 0.332292 0.242425
vt 0.552754 0.662731
vt 0.553469 0.692924
vt 0.597861 0.633707
vt 0.642252 0.604683
vt 0.642967 0.633707
vt 0.408873 0.432369
vt 0.379778 0.432369
vt 0.379778 0.242425
vt 0.408874 0.242425
vt 0.597861 0.662731
vt 0.736443 0.939869
vt 0.736646 0.913855
vt 0.485455 0.432369
vt 0.456359 0.432369
vt 0.456359 0.242425
vt 0.485455 0.242425
vt 0.694188 0.913524
vt 0.694391 0.887343
vt 0.562036 0.432369
vt 0.562036 0.242425
vt 0.609522 0.242425
vt 0.609522 0.432369
vt 0.532941 0.432369
vt 0.532941 0.242425
vt 0.651934 0.887343
vt 0.652137 0.860953
vt 0.686991 0.575518
vt 0.687706 0.604683
vt 0.731997 0.545417
vt 0.776142 0.513691
vt 0.776142 0.545417
vt 0.638617 0.432369
vt 0.638617 0.242425
vt 0.606110 0.860953
vt 0.606369 0.831935
vt 0.731997 0.575518
vt 0.715198 0.432369
vt 0.715198 0.242425
vt 0.762684 0.242425
vt 0.762684 0.432369
vt 0.686103 0.432369
vt 0.686103 0.242425
vt 0.565506 0.831935
vt 0.566248 0.801028
vt 0.791779 0.432369
vt 0.791779 0.242425
vt 0.839265 0.242425
vt 0.839265 0.432369
vt 0.526932 0.801028
vt 0.526932 0.770022
vt 0.818748 0.482530
vt 0.818748 0.513691
vt 0.868360 0.432369
vt 0.868360 0.242425
vt 0.818748 0.454628
vt 0.526932 0.735817
vt 0.862192 0.454628
vt 0.863352 0.482530
vt 0.480141 0.770022
vt 0.480141 0.735817
vt 0.975872 0.029828
vt 0.980155 0.031919
vt 0.968577 0.263743
vt 0.964813 0.261924
vt 0.971804 0.263893
vt 0.975721 0.262463
vt 0.974094 0.289921
vt 0.970478 0.289754
vt 0.983783 0.032056
vt 0.988261 0.030445
vt 0.981860 0.004850
vt 0.985253 0.005040
vt 0.966573 0.290134
vt 0.963829 0.290376
vt 0.985275 0.000598
vt 0.982333 0.000434
vt 0.989954 0.005606
vt 0.977106 0.004862
vt 0.954114 0.564074
vt 0.949890 0.563012
vt 0.916210 0.353894
vt 0.919701 0.354767
vt 0.913167 0.354437
vt 0.909879 0.356592
vt 0.904264 0.332263
vt 0.908464 0.331151
vt 0.946625 0.563582
vt 0.942940 0.565887
vt 0.953535 0.587501
vt 0.950472 0.587979
vt 0.912367 0.327491
vt 0.916900 0.327981
vt 0.951300 0.591944
vt 0.953955 0.591530
vt 0.946170 0.588371
vt 0.957774 0.586584
vt 0.874612 0.823523
vt 0.874612 0.821775
vt 0.959290 0.821775
vt 0.959290 0.823523
vt 0.874612 0.820026
vt 0.959290 0.820027
vt 0.874612 0.827020
vt 0.874612 0.825272
vt 0.959290 0.825271
vt 0.959290 0.827019
vt 0.901198 0.933155
vt 0.899450 0.933155
vt 0.899450 0.848481
vt 0.901198 0.848481
vt 0.897701 0.933155
vt 0.897701 0.848481
vt 0.895953 0.933155
vt 0.895953 0.848481
vt 0.902946 0.933155
vt 0.902946 0.848481
vt 0.874612 0.828888
vt 0.874612 0.827140
vt 0.959290 0.827140
vt 0.959290 0.828889
vt 0.874612 0.834134
vt 0.874612 0.832386
vt 0.959290 0.832385
vt 0.959290 0.834133
vt 0.874612 0.830637
vt 0.959290 0.830637
vt 0.903066 0.848482
vt 0.904814 0.848481
vt 0.904815 0.933155
vt 0.903066 0.933155
vt 0.906563 0.848481
vt 0.906563 0.933155
vt 0.908311 0.848481
vt 0.908312 0.933155
vt 0.910060 0.848481
vt 0.910060 0.933155
vn 0.0000 1.0000 0.0000
vn 0.0000 0.0000 1.0000
vn -1.0000 0.0000 0.0000
vn 1.0000 0.0000 0.0000
vn -0.9899 -0.1216 -0.0731
vn 0.9923 -0.1236 0.0000
vn 0.9897 -0.1227 -0.0737
vn 0.0000 1.0000 -0.0024
vn 0.0012 0.8563 0.5166
vn -0.0477 0.9988 -0.0048
vn -0.9890 -0.1459 0.0257
vn 0.0000 -0.0508 0.9987
vn 0.9974 -0.0702 -0.0184
vn -0.9974 -0.0702 -0.0184
vn -0.9898 -0.1216 -0.0736
vn 0.9909 -0.1344 -0.0020
vn 0.9897 -0.1226 -0.0742
vn 0.0009 0.8547 0.5191
vn -0.0474 0.9989 -0.0046
vn -0.9846 -0.1733 0.0232
vn 0.9974 -0.0702 -0.0185
vn -0.9974 -0.0702 -0.0185
vn 0.0000 0.0000 -1.0000
usemtl stairsMat
s off
f 8/1/1 9/2/1 6/3/1 7/4/1
f 10/5/2 7/4/2 6/3/2 5/6/2
f 5/7/3 6/8/3 9/9/3 4/10/3
f 3/11/4 8/12/4 7/13/4 10/14/4
f 10/5/1 5/6/1 13/15/1 11/16/1
f 3/11/4 10/14/4 11/17/4 14/18/4
f 14/19/2 11/16/2 13/15/2 12/20/2
f 5/7/3 4/10/3 12/21/3 13/22/3
f 15/23/3 4/10/3 19/24/3 20/25/3
f 18/26/2 17/27/2 16/28/2 15/29/2
f 12/21/3 4/10/3 15/23/3 16/30/3
f 14/19/1 12/20/1 16/28/1 17/27/1
f 3/11/4 14/18/4 17/31/4 18/32/4
f 22/33/2 21/34/2 20/35/2 19/36/2
f 3/11/4 18/32/4 21/37/4 22/38/4
f 18/26/1 15/29/1 20/35/1 21/34/1
f 26/39/1 23/40/1 28/41/1 29/42/1
f 26/39/2 25/43/2 24/44/2 23/40/2
f 3/11/4 22/38/4 25/45/4 26/46/4
f 19/24/3 4/10/3 23/47/3 24/48/3
f 22/33/1 19/36/1 24/44/1 25/43/1
f 27/49/3 4/10/3 31/50/3 32/51/3
f 30/52/2 29/42/2 28/41/2 27/53/2
f 3/11/4 26/46/4 29/54/4 30/55/4
f 23/47/3 4/10/3 27/49/3 28/56/3
f 34/57/1 31/58/1 36/59/1 37/60/1
f 34/57/2 33/61/2 32/62/2 31/58/2
f 30/52/1 27/53/1 32/62/1 33/61/1
f 3/11/4 30/55/4 33/63/4 34/64/4
f 38/65/1 35/66/1 42/67/1 39/68/1
f 38/65/2 37/60/2 36/59/2 35/66/2
f 3/11/4 34/64/4 37/69/4 38/70/4
f 31/50/3 4/10/3 35/71/3 36/72/3
f 40/73/2 39/68/2 42/67/2 41/74/2
f 35/71/3 4/10/3 2/75/3
f 3/11/4 38/70/4 1/76/4
f 2/75/3 41/77/3 42/78/3 35/71/3
f 1/76/4 38/70/4 39/79/4 40/80/4
f 43/81/5 44/82/5 46/83/5 45/84/5
f 50/85/6 49/86/6 53/87/6 54/88/6
f 49/86/7 50/85/7 48/89/7 47/90/7
f 48/89/8 44/82/8 56/91/8 57/92/8
f 50/85/9 46/83/9 44/82/9 48/89/9
f 46/83/10 50/85/10 54/88/10 51/93/10
f 45/84/11 46/83/11 51/93/11 52/94/11
f 58/95/12 57/92/12 56/91/12 55/96/12
f 47/90/13 48/89/13 57/92/13 58/97/13
f 44/82/14 43/81/14 55/98/14 56/91/14
f 59/99/15 60/100/15 62/101/15 61/102/15
f 66/103/16 65/104/16 69/105/16 70/106/16
f 65/104/17 66/103/17 64/107/17 63/108/17
f 64/107/8 60/100/8 72/109/8 73/110/8
f 66/103/18 62/101/18 60/100/18 64/107/18
f 62/101/19 66/103/19 70/106/19 67/111/19
f 61/102/20 62/101/20 67/111/20 68/112/20
f 74/113/12 73/110/12 72/109/12 71/114/12
f 63/108/21 64/107/21 73/110/21 74/115/21
f 60/100/22 59/99/22 71/116/22 72/109/22
f 75/117/4 77/118/4 78/119/4 76/120/4
f 77/118/2 81/121/2 82/122/2 78/119/2
f 81/123/3 79/124/3 80/125/3 82/126/3
f 79/124/23 75/117/23 76/120/23 80/125/23
f 83/127/4 85/128/4 86/129/4 84/130/4
f 85/128/2 89/131/2 90/132/2 86/129/2
f 89/131/3 87/133/3 88/134/3 90/132/3
f 87/135/23 83/127/23 84/130/23 88/136/23
f 91/137/4 93/138/4 94/139/4 92/140/4
f 93/141/2 97/142/2 98/143/2 94/144/2
f 97/142/3 95/145/3 96/146/3 98/143/3
f 95/145/23 91/137/23 92/140/23 96/146/23
f 99/147/4 101/148/4 102/149/4 100/150/4
f 101/148/2 105/151/2 106/152/2 102/149/2
f 105/151/3 103/153/3 104/154/3 106/152/3
f 103/153/23 99/155/23 100/156/23 104/154/23
o raiiling_one_side_Cube.034
v 1.132807 0.858862 8.450655
v 1.132807 3.128631 8.450655
v 4.869134 0.858862 8.450655
v 4.869134 3.128631 8.450655
v 4.869134 5.760560 0.506234
v 4.869134 8.030329 0.506234
v 1.132807 5.760560 0.506234
v 1.132807 8.030329 0.506234
v 1.082807 0.858862 8.450655
v 1.082807 3.128631 8.450655
v 4.919134 0.858862 8.450655
v 4.919134 3.128631 8.450655
v 4.919134 5.760560 0.506234
v 4.919134 8.030329 0.506234
v 1.082807 5.760560 0.506234
v 1.082807 8.030329 0.506234
vt 0.004732 0.989054
vt 0.280631 0.989054
vt 0.280631 0.019131
vt 0.004732 0.019131
vt 0.716860 0.981145
vt 0.979269 0.981145
vt 0.979269 0.019131
vt 0.716860 0.019131
vt 0.004732 0.989054
vt 0.004732 0.019131
vt 0.280631 0.019131
vt 0.280631 0.989054
vt 0.716860 0.981145
vt 0.716860 0.019131
vt 0.979269 0.019131
vt 0.979269 0.981145
vn 1.0000 0.0000 0.0000
vn -1.0000 0.0000 0.0000
usemtl railingMat
s off
f 107/157/24 113/158/24 114/159/24 108/160/24
f 111/161/25 109/162/25 110/163/25 112/164/25
f 115/165/25 116/166/25 122/167/25 121/168/25
f 119/169/24 120/170/24 118/171/24 117/172/24
