# Blender 3.4.1
# www.blender.org
mtllib pillar.mtl
g Pillar_Mesh
v 0.413458 6.115533 -0.413458
v 0.413458 0.000000 -0.413458
v 0.413458 6.115533 0.413458
v 0.413458 0.000000 0.413458
v -0.413458 6.115533 -0.413458
v -0.413458 0.000000 -0.413458
v -0.413458 6.115533 0.413458
v -0.413458 0.000000 0.413458
v 0.493725 6.115533 0.493725
v -0.493725 6.115533 0.493725
v 0.493725 6.115533 -0.493725
v -0.493725 6.115533 -0.493725
v 0.493725 6.368086 0.493725
v -0.493725 6.368086 0.493725
v 0.493725 6.368086 -0.493725
v -0.493725 6.368086 -0.493725
vn -0.0000 -0.0000 1.0000
vn -1.0000 -0.0000 -0.0000
vn 1.0000 -0.0000 -0.0000
vn -0.0000 -0.0000 -1.0000
vn -0.0000 1.0000 -0.0000
vn -0.0000 -1.0000 -0.0000
vt 0.495243 0.716624
vt 0.011200 0.749607
vt 0.074012 0.686796
vt 0.495243 0.005084
vt 0.388400 0.716624
vt 0.011200 0.924402
vt 0.074012 0.987214
vt 0.388400 0.005084
vt 0.602085 0.716624
vt 0.311619 0.749607
vt 0.248807 0.686796
vt 0.602086 0.005084
vt 0.281558 0.716624
vt 0.708928 0.716624
vt 0.311619 0.924402
vt 0.248807 0.987214
vt 0.281557 0.005084
vt 0.708929 0.005084
vt 0.028167 0.941369
vt 0.057045 0.970247
vt 0.294652 0.941369
vt 0.265774 0.970247
vt 0.028167 0.732640
vt 0.057045 0.703763
vt 0.294652 0.732640
vt 0.265774 0.703763
vt 0.057045 0.941369
vt 0.265774 0.941369
vt 0.057045 0.732640
vt 0.265774 0.732640
s 0
usemtl pillarMTR
f 4/8/1 3/5/1 7/13/1 8/17/1
f 8/18/2 7/14/2 5/9/2 6/12/2
f 2/4/3 1/1/3 3/5/3 4/8/3
f 6/12/4 5/9/4 1/1/4 2/4/4
f 16/30/5 14/28/5 13/27/5 15/29/5
f 3/6/6 1/2/6 11/23/6 9/19/6
f 5/10/6 7/15/6 10/21/6 12/25/6
f 12/25/2 10/21/2 14/28/2 16/30/2
f 9/19/3 11/23/3 15/29/3 13/27/3
f 11/24/4 12/26/4 16/30/4 15/29/4
f 10/22/1 9/20/1 13/27/1 14/28/1
f 1/3/6 5/11/6 12/26/6 11/24/6
f 7/16/6 3/7/6 9/20/6 10/22/6
