# Blender v2.81 (sub 16) OBJ File: 'pillar.blend'
# www.blender.org
mtllib pillar.mtl
o Cube
v 0.413458 6.115533 -0.413458
v 0.413458 0.000000 -0.413458
v 0.413458 6.115533 0.413458
v 0.413458 0.000000 0.413458
v -0.413458 6.115533 -0.413458
v -0.413458 0.000000 -0.413458
v -0.413458 6.115533 0.413458
v -0.413458 0.000000 0.413458
v 0.493725 6.115533 0.493725
v -0.493725 6.115533 0.493725
v 0.493725 6.115533 -0.493725
v -0.493725 6.115533 -0.493725
v 0.493725 6.368086 0.493725
v -0.493725 6.368086 0.493725
v 0.493725 6.368086 -0.493725
v -0.493725 6.368086 -0.493725
vt 0.388400 0.005084
vt 0.388400 0.716624
vt 0.281558 0.716624
vt 0.281557 0.005084
vt 0.708929 0.005084
vt 0.708928 0.716624
vt 0.602085 0.716624
vt 0.602086 0.005084
vt 0.495243 0.005084
vt 0.495243 0.716624
vt 0.265774 0.732640
vt 0.265774 0.941369
vt 0.057045 0.941369
vt 0.057045 0.732640
vt 0.011200 0.924402
vt 0.011200 0.749607
vt 0.028167 0.732640
vt 0.028167 0.941369
vt 0.311619 0.749607
vt 0.311619 0.924402
vt 0.294652 0.941369
vt 0.294652 0.732640
vt 0.057045 0.703763
vt 0.265774 0.703763
vt 0.265774 0.970247
vt 0.057045 0.970247
vt 0.074012 0.686796
vt 0.248807 0.686796
vt 0.248807 0.987214
vt 0.074012 0.987214
vn 0.0000 0.0000 1.0000
vn -1.0000 0.0000 0.0000
vn 1.0000 0.0000 0.0000
vn 0.0000 0.0000 -1.0000
vn 0.0000 1.0000 0.0000
vn 0.0000 -1.0000 0.0000
usemtl pillarMTR
s off
f 4/1/1 3/2/1 7/3/1 8/4/1
f 8/5/2 7/6/2 5/7/2 6/8/2
f 2/9/3 1/10/3 3/2/3 4/1/3
f 6/8/4 5/7/4 1/10/4 2/9/4
f 16/11/5 14/12/5 13/13/5 15/14/5
f 3/15/6 1/16/6 11/17/6 9/18/6
f 5/19/6 7/20/6 10/21/6 12/22/6
f 12/22/2 10/21/2 14/12/2 16/11/2
f 9/18/3 11/17/3 15/14/3 13/13/3
f 11/23/4 12/24/4 16/11/4 15/14/4
f 10/25/1 9/26/1 13/13/1 14/12/1
f 1/27/6 5/28/6 12/24/6 11/23/6
f 7/29/6 3/30/6 9/26/6 10/25/6
