# Blender 3.4.1
# www.blender.org
mtllib woodenPost001.mtl
g WoodenPost_Mesh
v 0.136844 4.098711 0.091475
v 0.154343 0.000000 0.101052
v 0.134444 4.098541 -0.107804
v 0.154343 0.000000 -0.101052
v -0.180603 4.103520 0.064751
v -0.154343 0.000000 0.101052
v -0.183003 4.103351 -0.134528
v -0.154343 0.000000 -0.101052
vn 0.0152 0.9999 -0.0010
vn 0.0426 -0.0046 -0.9991
vn -1.0000 -0.0066 0.0060
vn 1.0000 0.0046 -0.0060
vn -0.0426 0.0054 0.9991
vt 0.122752 0.936974
vt 0.000243 0.939627
vt 0.122752 0.003409
vt 0.000243 0.000762
vt 0.000243 0.999940
vt 0.059291 0.939627
vt 0.064948 0.936974
vt 0.059291 0.000762
vt 0.064948 0.003409
vt 0.064948 0.936974
vt 0.059291 0.939627
vt 0.064948 0.003409
vt 0.059291 0.000762
vt 0.059291 0.999940
vt 0.000243 0.939627
vt 0.122752 0.936974
vt 0.000243 0.000762
vt 0.122752 0.003409
s 0
usemtl Material
f 1/2/1 3/5/1 7/14/1 5/11/1
f 4/8/2 8/17/2 7/15/2 3/6/2
f 8/18/3 6/12/3 5/10/3 7/16/3
f 2/3/4 4/9/4 3/7/4 1/1/4
f 6/13/5 2/4/5 1/2/5 5/11/5
