# Blender v2.82 (sub 7) OBJ File: 'woodenFence001.blend'
# www.blender.org
mtllib woodenFence001.mtl
o Cube
v 2.005853 4.025284 0.058583
v 2.000000 0.000000 0.054622
v 2.007643 4.025115 -0.050645
v 2.000000 0.000000 -0.054622
v -1.992600 4.004033 0.015770
v -2.000000 0.000000 0.054622
v -1.990811 4.003863 -0.093458
v -2.000000 0.000000 -0.054622
vt 0.000243 0.939627
vt 0.000243 0.999940
vt 0.999928 0.999940
vt 0.999928 0.939627
vt 0.999928 0.000762
vt 0.000243 0.000762
vt 0.000243 0.939627
vt 0.999928 0.939627
vt 0.073796 0.003409
vt 0.001487 0.003409
vt 0.001487 0.936974
vt 0.073796 0.936974
vt 0.073796 0.003409
vt 0.001487 0.003409
vt 0.001487 0.936974
vt 0.073796 0.936974
vt 0.999928 0.000762
vt 0.000243 0.000762
vn -0.0053 1.0000 -0.0016
vn 0.0054 -0.0044 -1.0000
vn -1.0000 0.0020 -0.0082
vn 1.0000 -0.0017 0.0082
vn -0.0054 0.0044 1.0000
usemtl Material
s off
f 1/1/1 3/2/1 7/3/1 5/4/1
f 4/5/2 8/6/2 7/7/2 3/8/2
f 8/9/3 6/10/3 5/11/3 7/12/3
f 2/13/4 4/14/4 3/15/4 1/16/4
f 6/17/5 2/18/5 1/1/5 5/4/5
