# Blender v2.81 (sub 16) OBJ File: ''
# www.blender.org
mtllib stopSign.mtl
o sign_Cube.002
v 0.195137 13.453869 -2.953393
v 0.247027 13.453869 -2.953393
v 0.195137 13.453869 2.953393
v 0.247027 13.453869 2.953393
v 0.195136 15.460155 -2.953393
v 0.247027 15.460155 2.953393
v 0.247027 15.460155 -2.953393
v 0.195136 15.460155 2.953393
v 0.195136 17.394638 1.005495
v 0.247027 17.394638 1.005495
v 0.195137 11.487852 1.005495
v 0.247027 11.487852 1.005495
v 0.247027 13.453869 1.005495
v 0.195137 13.453869 1.005495
v 0.195136 15.460155 1.005495
v 0.247027 15.460155 1.005495
v 0.247027 17.394638 -1.005368
v 0.195137 11.487852 -1.005368
v 0.195136 17.394638 -1.005368
v 0.247027 11.487852 -1.005368
v 0.247027 13.453869 -1.005368
v 0.195137 13.453869 -1.005368
v 0.195136 15.460155 -1.005368
v 0.247027 15.460155 -1.005368
v -0.199625 -0.000270 0.199625
v -0.199625 17.052109 0.199625
v -0.199625 -0.000270 -0.199625
v -0.199625 17.052109 -0.199625
v 0.199625 -0.000270 0.199625
v 0.199625 17.052109 0.199625
v 0.199625 -0.000270 -0.199625
v 0.199625 17.052109 -0.199625
vt 0.920711 0.175591
vt 0.920711 0.252467
vt 0.919136 0.252467
vt 0.919136 0.175591
vt 0.920711 0.291963
vt 0.920711 0.368837
vt 0.919136 0.368837
vt 0.919136 0.291963
vt 0.920711 0.059928
vt 0.920711 0.136185
vt 0.919136 0.136185
vt 0.919136 0.059928
vt 0.819345 0.214262
vt 0.916268 0.214262
vt 0.819345 0.310292
vt 0.259643 0.769579
vt 0.259643 0.993214
vt 0.002453 0.769579
vt 0.259642 0.224085
vt 0.259643 0.450057
vt 0.002453 0.450057
vt 0.720436 0.214262
vt 0.720436 0.310292
vt 0.625068 0.214262
vt 0.920711 0.408243
vt 0.919136 0.408243
vt 0.607557 0.450057
vt 0.607557 0.769579
vt 0.625068 0.115128
vt 0.720436 0.115128
vt 0.819345 0.115128
vt 0.607557 0.224085
vt 0.607557 0.993214
vt 0.916268 0.115128
vt 0.819345 0.019091
vt 0.856082 0.769579
vt 0.856082 0.450057
vt 0.720436 0.019091
vt 0.919136 0.020433
vt 0.920711 0.020433
vt 0.989045 0.013540
vt 0.989045 0.986463
vt 0.930720 0.986463
vt 0.930720 0.013539
vt 0.988896 0.986463
vt 0.988896 0.013539
vt 0.930571 0.986462
vt 0.930571 0.013539
vt 0.988747 0.986463
vt 0.988747 0.013537
vt 0.601780 0.024850
vt 0.652406 0.024850
vt 0.652406 0.075476
vt 0.601780 0.075476
vt 0.599214 0.138510
vt 0.658588 0.138510
vt 0.658588 0.197883
vt 0.599214 0.197883
vn 0.0000 -0.7038 -0.7103
vn 0.0000 -0.7038 0.7104
vn 0.0000 0.7096 -0.7046
vn -1.0000 -0.0000 0.0000
vn 1.0000 0.0000 0.0000
vn 0.0000 0.0000 -1.0000
vn 0.0000 0.0000 1.0000
vn 0.0000 -1.0000 0.0000
vn 0.0000 1.0000 0.0000
vn 0.0000 0.7095 0.7047
usemtl stopSignMtr
s off
f 2/1/1 20/2/1 18/3/1 1/4/1
f 12/5/2 4/6/2 3/7/2 11/8/2
f 17/9/3 7/10/3 5/11/3 19/12/3
f 14/13/4 11/14/4 3/15/4
f 16/16/5 10/17/5 6/18/5
f 12/19/5 13/20/5 4/21/5
f 15/22/4 14/13/4 3/15/4 8/23/4
f 5/11/6 7/10/6 2/1/6 1/4/6
f 9/24/4 15/22/4 8/23/4
f 13/20/5 16/16/5 6/18/5 4/21/5
f 3/7/7 4/6/7 6/25/7 8/26/7
f 21/27/5 24/28/5 16/16/5 13/20/5
f 19/29/4 23/30/4 15/22/4 9/24/4
f 23/30/4 22/31/4 14/13/4 15/22/4
f 20/32/5 21/27/5 13/20/5 12/19/5
f 24/28/5 17/33/5 10/17/5 16/16/5
f 22/31/4 18/34/4 11/14/4 14/13/4
f 18/3/8 20/2/8 12/5/8 11/8/8
f 1/35/4 18/34/4 22/31/4
f 7/36/5 17/33/5 24/28/5
f 2/37/5 21/27/5 20/32/5
f 5/38/4 1/35/4 22/31/4 23/30/4
f 5/38/4 23/30/4 19/29/4
f 2/37/5 7/36/5 24/28/5 21/27/5
f 9/39/9 10/40/9 17/9/9 19/12/9
f 6/25/10 10/40/10 9/39/10 8/26/10
f 25/41/4 26/42/4 28/43/4 27/44/4
f 27/44/6 28/43/6 32/45/6 31/46/6
f 31/46/5 32/45/5 30/47/5 29/48/5
f 29/48/7 30/47/7 26/49/7 25/50/7
f 27/51/8 31/52/8 29/53/8 25/54/8
f 32/55/9 28/56/9 26/57/9 30/58/9
