# Blender v2.82 (sub 7) OBJ File: 's10_1.blend'
# www.blender.org
mtllib s10.mtl
o Cube
v -3.624713 0.738707 -1.363557
v 4.502259 2.169643 0.000000
v 0.500561 0.000000 -1.416976
v 0.500561 0.738707 1.416977
v 0.500561 0.000000 1.416977
v 0.500561 0.738707 -1.416976
v 0.500561 1.080867 1.416976
v 0.500561 1.080867 -1.416976
v 0.500561 1.164504 1.416976
v 0.500561 1.164504 -1.416976
v 0.500561 0.902363 1.416976
v 0.500561 0.902363 -1.416976
v 0.500561 1.703925 1.387206
v 0.500561 1.703925 -1.387206
v 0.500561 2.169643 1.272895
v 0.500561 2.169643 -1.272895
v -4.734611 0.000000 -0.000000
v 4.527452 0.738707 -0.000000
v -4.734611 0.738707 -0.000000
v 4.527452 0.000000 -0.000000
v 4.886730 1.080867 -0.000000
v -4.930580 1.080867 -0.000000
v 4.640395 1.164504 -0.000000
v -4.853601 1.164504 -0.000000
v 4.822463 0.902363 -0.000000
v -4.866833 0.902363 -0.000000
v 4.701979 1.703925 -0.000000
v -4.638858 1.727140 -0.000000
v -4.419719 1.867227 0.000000
v 4.655791 2.169643 0.000000
v -2.912337 2.147091 0.000000
v 0.626568 2.169643 0.000000
v -4.563202 0.738707 -1.216324
v -4.563196 0.000000 -1.216367
v -4.563202 0.738707 1.216324
v -4.563196 0.000000 1.216367
v -4.759186 1.080867 1.216224
v -4.759186 1.080867 -1.216224
v -4.682210 1.164504 1.216197
v -4.682210 1.164504 -1.216197
v -4.695432 0.902363 1.216269
v -4.695432 0.902363 -1.216269
v -4.513902 1.717191 1.190613
v -4.513902 1.717191 -1.190613
v -4.300856 1.853962 1.158100
v -3.624713 0.000000 -1.363557
v -4.300856 1.853962 -1.158100
v -3.790535 2.004617 0.000143
v -3.624713 0.902363 -1.363558
v -3.624713 0.000000 1.363844
v -3.624713 0.738707 1.363844
v -3.624713 0.902363 1.363844
v -3.624714 1.080867 1.363844
v -3.624713 1.164504 1.363844
v -3.624714 1.080867 -1.363558
v -3.624713 1.164504 -1.363558
v -3.624713 1.703925 1.335193
v -3.624713 1.703925 -1.334906
v -3.735261 1.972046 1.198094
v -3.735261 1.972046 -1.142842
v -2.641962 2.068412 1.230623
v -2.641962 2.068412 -1.178733
v -2.806101 1.080867 -1.416976
v -2.804530 1.703925 -1.387206
v -2.806846 0.000000 -1.416976
v -2.805450 1.164504 -1.416976
v -2.806767 0.738707 -1.416976
v -2.806528 0.902363 -1.416976
v -2.805450 1.164504 1.416976
v -2.806767 0.738707 1.416977
v -2.804530 1.703925 1.387206
v -2.806101 1.080867 1.416976
v -2.806528 0.902363 1.416976
v -2.806846 0.000000 1.416977
v 4.362825 0.738707 -1.416976
v 4.527452 0.738707 -1.128043
v 4.363627 0.000000 -1.416976
v 4.527452 0.000000 -1.128010
v 4.527452 0.738707 1.020914
v 4.362825 0.738707 1.416977
v 4.527452 0.000000 1.020914
v 4.363627 0.000000 1.416977
v 4.720853 1.080867 1.416976
v 4.886730 1.080867 1.020914
v 4.720853 1.080867 -1.416976
v 4.886730 1.080867 -1.128017
v 4.640395 1.164504 1.020914
v 4.483933 1.164504 1.416976
v 4.483933 1.164504 -1.416976
v 4.640395 1.164504 -1.128017
v 4.822463 0.902363 -1.128017
v 4.656258 0.902363 -1.416976
v 4.822463 0.902363 1.020914
v 4.656258 0.902363 1.416976
v 4.701979 1.703925 1.020913
v 4.547280 1.703925 1.387206
v 4.547280 1.703925 -1.387206
v 4.701979 1.703925 -1.128010
v 4.655791 2.169643 1.020913
v 4.655791 2.169643 -1.128010
v 4.502260 2.169643 -1.272895
v 0.626568 2.169643 1.117906
v 4.502260 2.169643 1.195400
v 0.626568 2.169643 -1.117907
v 4.502260 1.294165 -1.117907
v 4.502259 1.294165 0.000000
v 0.626568 1.294165 0.000000
v 0.626568 1.294165 -1.117907
v 0.626568 1.294165 1.117906
v 4.502260 1.294165 1.117906
v -1.657425 2.860414 0.000000
v -1.431213 2.849681 0.924942
v -1.431213 2.849681 -0.924942
v 0.389762 2.838165 -0.956781
v 0.371229 2.860414 0.000000
v 0.527078 2.275325 0.000008
v 0.519995 2.260478 1.077022
v 0.387593 2.838311 0.956723
v 0.529605 2.260413 -1.077123
v 4.502259 2.143981 -1.117907
v 4.502259 2.169643 1.020913
v 0.626568 2.169643 1.117906
v 0.626568 1.294165 1.117906
v 0.626568 1.294165 1.117906
v -4.563202 0.738707 1.216324
v -4.563202 0.738707 1.216324
v -4.563196 0.000000 1.216367
v -4.563202 0.738707 -1.216324
v -4.563202 0.738707 -1.216324
v -4.563202 0.738707 -1.216324
v -4.563196 0.000000 -1.216367
v -4.759186 1.080867 1.216224
v -4.695432 0.902363 1.216269
v -4.695432 0.902363 -1.216269
v -4.682210 1.164504 1.216197
v -4.682210 1.164504 1.216197
v -4.759186 1.080867 -1.216224
v -4.682210 1.164504 -1.216197
v -4.682210 1.164504 -1.216197
v -4.734611 0.738707 -0.000000
v -4.853601 1.164504 -0.000000
v -2.912337 2.147091 0.000000
v 4.362825 0.738707 -1.416976
v 4.527452 0.738707 -1.128043
v 4.527452 0.738707 1.020914
v 4.362825 0.738707 1.416977
v 4.720853 1.080867 -1.416976
v 4.886730 1.080867 -1.128017
v 4.483933 1.164504 -1.416976
v 4.640395 1.164504 -1.128017
v 4.640395 1.164504 1.020914
v 4.483933 1.164504 1.416976
v 4.720853 1.080867 1.416976
v 4.886730 1.080867 1.020914
v 4.502260 2.169643 -1.272895
v 4.655791 2.169643 -1.128010
v 4.527452 0.738707 -0.000000
v 4.886730 1.080867 -0.000000
v 4.640395 1.164504 -0.000000
v 4.655791 2.169643 0.000000
v 4.655791 2.169643 1.020913
v 4.502260 2.169643 1.195400
v 4.502260 1.294165 -1.117907
v 4.502260 1.294165 -1.117907
v 4.502259 1.294165 0.000000
v 0.626568 1.294165 -1.117907
v 0.626568 1.294165 -1.117907
v 0.626568 1.294165 0.000000
v 4.502260 1.294165 1.117906
v 4.502260 1.294165 1.117906
v 0.626568 2.169643 -1.117907
v 0.387593 2.838311 0.956723
v 0.500561 2.169643 1.272895
v 0.371229 2.860414 0.000000
v 4.502259 2.169643 0.000000
v 4.502259 2.169643 1.020913
v 4.502259 2.169643 1.020913
v 0.500561 2.169643 -1.272895
v 0.389762 2.838165 -0.956781
v 4.502259 2.143981 -1.117907
v 4.502259 2.143981 -1.117907
vt 0.221468 0.187191
vt 0.221537 0.159719
vt 0.486346 0.159719
vt 0.486580 0.187191
vt 0.221460 0.152450
vt 0.221350 0.136974
vt 0.486237 0.136974
vt 0.486312 0.152450
vt 0.040193 0.488433
vt 0.036160 0.392541
vt 0.049037 0.392550
vt 0.052906 0.486462
vt 0.996024 0.305301
vt 0.996024 0.389243
vt 0.988112 0.389243
vt 0.988112 0.305301
vt 0.756089 0.661785
vt 0.486396 0.661785
vt 0.486448 0.647333
vt 0.774743 0.647333
vt 0.988112 0.479224
vt 0.975712 0.479224
vt 0.975712 0.389243
vt 0.778898 0.631825
vt 0.486505 0.631825
vt 0.486531 0.624595
vt 0.763913 0.624595
vt 0.221903 0.631825
vt 0.221781 0.647333
vt 0.141391 0.647333
vt 0.141391 0.631825
vt 0.075282 0.488414
vt 0.070723 0.392563
vt 0.103820 0.392587
vt 0.106826 0.485719
vt 0.052975 0.298682
vt 0.065881 0.297694
vt 0.061288 0.392558
vt 0.975712 0.305301
vt 0.221984 0.624595
vt 0.141391 0.624595
vt 0.975712 0.305301
vt 0.975712 0.389243
vt 0.958275 0.389243
vt 0.958275 0.305301
vt 0.221668 0.661785
vt 0.141391 0.661785
vt 0.755765 0.071146
vt 0.756038 0.122588
vt 0.486169 0.122588
vt 0.485857 0.071146
vt 0.013009 0.296028
vt 0.040263 0.296693
vt 0.036160 0.392541
vt 0.009144 0.392507
vt 0.119340 0.392598
vt 0.122783 0.487180
vt 0.486693 0.597461
vt 0.768115 0.597461
vt 0.221089 0.713140
vt 0.486162 0.713140
vt 0.768170 0.187191
vt 0.765545 0.227291
vt 0.486799 0.227291
vt 0.536964 0.506675
vt 0.545732 0.509896
vt 0.545966 0.528299
vt 0.932607 0.389243
vt 0.932607 0.479224
vt 0.897752 0.479224
vt 0.897752 0.389243
vt 0.221976 0.597461
vt 0.141391 0.597461
vt 0.932607 0.305301
vt 0.897752 0.305301
vt 0.897752 0.296018
vt 0.932607 0.296018
vt 0.231996 0.557182
vt 0.486927 0.557182
vt 0.146044 0.567005
vt 0.634242 0.528718
vt 0.829796 0.528718
vt 0.829796 0.539608
vt 0.634242 0.539608
vt 0.893149 0.389243
vt 0.893149 0.477559
vt 0.830442 0.477559
vt 0.830442 0.389243
vt 0.106892 0.299617
vt 0.122848 0.298345
vt 0.958275 0.389243
vt 0.958275 0.479224
vt 0.075351 0.296869
vt 0.996024 0.479224
vt 0.040263 0.296693
vt 0.958275 0.305301
vt 0.065813 0.487578
vt 0.075351 0.296869
vt 0.070723 0.392563
vt 0.975712 0.479224
vt 0.958275 0.479224
vt 0.040193 0.488433
vt 0.012938 0.489030
vt 0.156003 0.136974
vt 0.156003 0.152450
vt 1.019159 0.389243
vt 0.996024 0.389243
vt 0.996024 0.305301
vt 1.019159 0.305301
vt 0.897752 0.389243
vt 0.893149 0.389243
vt 0.893149 0.305301
vt 0.897752 0.305301
vt 0.897752 0.479224
vt 0.897752 0.490534
vt 0.893149 0.477559
vt 0.765436 0.557182
vt 0.536608 0.279011
vt 0.545842 0.275845
vt 0.544943 0.392633
vt 0.535779 0.392625
vt 0.158470 0.294942
vt 0.157306 0.393028
vt 0.763911 0.159719
vt 0.086187 0.187191
vt 0.156003 0.187191
vt 0.160728 0.215451
vt 0.101196 0.199886
vt 0.076372 0.152450
vt 0.156003 0.159719
vt 0.081211 0.159719
vt 0.774723 0.136974
vt 0.079816 0.136974
vt 0.086780 0.122588
vt 0.156003 0.122588
vt 0.778898 0.152450
vt 0.755892 0.713140
vt 0.231115 0.227291
vt 0.219113 0.288168
vt 0.205081 0.393097
vt 0.221246 0.122588
vt 0.158493 0.489945
vt 0.219153 0.497259
vt 0.075282 0.488414
vt 0.086961 0.713140
vt 0.086961 0.661785
vt 0.141391 0.713140
vt 0.220728 0.071146
vt 0.156003 0.071146
vt 0.205081 0.393097
vt 0.309877 0.392810
vt 0.319270 0.489577
vt 0.080196 0.647333
vt 0.076828 0.631825
vt 0.086961 0.661785
vt 0.081712 0.624595
vt 0.086992 0.597461
vt 0.472706 0.489577
vt 0.231957 0.227291
vt 0.102199 0.584804
vt 0.471343 0.392705
vt 0.996024 0.479224
vt 1.019159 0.479224
vt 1.019159 0.490534
vt 0.996024 0.490534
vt 0.996024 0.296018
vt 1.019159 0.296018
vt 0.988112 0.490534
vt 0.975712 0.490534
vt 0.988112 0.296018
vt 0.996024 0.296018
vt 0.975712 0.490534
vt 0.958275 0.490534
vt 0.958275 0.296018
vt 0.975712 0.296018
vt 0.996024 0.490534
vt 0.975712 0.296018
vt 0.958275 0.296018
vt 0.958275 0.490534
vt 0.932607 0.490534
vt 0.897752 0.490534
vt 0.897752 0.296018
vt 0.829796 0.393582
vt 0.634242 0.393582
vt 0.634242 0.298202
vt 0.829796 0.298202
vt 0.829796 0.240361
vt 0.829796 0.251771
vt 0.634242 0.251771
vt 0.634242 0.240361
vt 0.319202 0.298382
vt 0.472498 0.298415
vt 0.554470 0.394555
vt 0.554470 0.267787
vt 0.619708 0.267787
vt 0.619708 0.394555
vt 0.829796 0.481201
vt 0.634242 0.481201
vt 0.634242 0.251771
vt 0.829796 0.251771
vt 0.829796 0.298202
vt 0.634242 0.298202
vt 0.554470 0.521354
vt 0.619708 0.521354
vt 0.893149 0.305301
vt 0.830442 0.305301
vt 0.472498 0.298415
vt 0.545842 0.257600
vt 0.472706 0.489577
vt 0.471343 0.392705
vt 0.086780 0.071146
vt 0.829796 0.481201
vt 0.829796 0.528718
vt 0.634242 0.528718
vt 0.634242 0.481201
vn -0.0377 0.2209 0.9745
vn -0.0321 0.0273 0.9991
vn 0.0000 0.0276 0.9996
vn -0.0005 0.1853 0.9827
vn -0.0324 0.0001 0.9995
vn -0.0324 0.0000 0.9995
vn 0.0000 0.0000 1.0000
vn -0.7732 -0.6247 -0.1090
vn -0.7778 -0.6284 0.0000
vn -0.8756 -0.4830 0.0000
vn -0.8620 -0.4921 -0.1215
vn 0.4827 -0.8689 0.1098
vn 0.4851 -0.8744 0.0000
vn 0.7616 -0.6480 0.0000
vn 0.7678 -0.6218 0.1545
vn 0.2643 0.0001 -0.9644
vn 0.0000 0.0000 -1.0000
vn 0.4475 -0.4506 -0.7725
vn 0.7639 -0.6119 -0.2049
vn 0.9153 -0.3299 -0.2312
vn 0.9409 -0.3387 0.0000
vn 0.5074 -0.1831 -0.8420
vn 0.0000 0.0276 -0.9996
vn 0.2370 -0.0064 -0.9715
vn -0.0326 0.0001 -0.9995
vn -0.0326 0.0000 -0.9995
vn -0.1020 -0.0204 -0.9946
vn -0.0990 0.0096 -0.9950
vn -0.9384 0.3250 -0.1169
vn -0.9449 0.3272 0.0000
vn -0.7916 0.6110 0.0000
vn -0.6055 0.5162 -0.6058
vn -0.8620 -0.4921 0.1215
vn -0.9688 0.2067 0.1365
vn -0.9816 0.1907 0.0000
vn 0.9256 -0.3336 0.1785
vn -0.0323 0.0273 -0.9991
vn -0.1025 0.0468 -0.9936
vn 0.3234 0.9445 0.0572
vn 0.3215 0.9469 0.0000
vn 0.3237 0.9433 0.0728
vn -0.1076 -0.0146 -0.9941
vn 0.5557 0.0003 0.8314
vn 0.2889 0.0002 0.9573
vn -0.9902 0.0000 0.1395
vn -1.0000 0.0000 0.0000
vn -0.3879 0.9217 -0.0002
vn -0.2884 0.8282 -0.4804
vn -0.0049 0.1802 -0.9836
vn 0.4881 0.0951 -0.8676
vn 0.5343 0.1251 0.8359
vn 0.5141 0.2808 0.8104
vn -0.0072 0.3428 0.9393
vn 0.8474 0.5032 -0.1694
vn 0.6062 0.7917 -0.0751
vn 0.5349 0.8182 -0.2109
vn 1.0000 -0.0074 0.0000
vn 0.9593 0.0127 -0.2821
vn 0.9370 0.1321 -0.3233
vn 0.9951 0.0987 0.0000
vn -0.0410 0.2688 -0.9623
vn -0.0978 0.2999 -0.9489
vn 0.9752 0.0186 0.2205
vn 0.9552 0.1471 0.2569
vn -0.1892 0.7411 -0.6442
vn -0.0162 0.3288 -0.9442
vn -0.1457 0.8570 -0.4943
vn -0.0766 0.9943 0.0746
vn -0.0506 0.9927 0.1093
vn -0.6103 0.5028 0.6121
vn -0.3122 0.8057 0.5033
vn 0.9935 -0.1134 0.0000
vn 0.9604 -0.1032 -0.2586
vn -0.9384 0.3250 0.1169
vn 0.4800 -0.8639 -0.1521
vn -0.7732 -0.6247 0.1090
vn 0.9751 -0.1067 0.1941
vn -0.9688 0.2067 -0.1365
vn -0.7318 0.6736 0.1031
vn -0.7358 0.6772 0.0000
vn 0.3229 0.9436 -0.0734
vn 0.3229 0.9409 -0.1017
vn -0.9902 0.0000 -0.1395
vn -0.1019 -0.0205 0.9946
vn -0.0989 0.0096 0.9950
vn 1.0000 0.0000 0.0000
vn 0.9807 0.0002 0.1953
vn -0.0418 0.9991 -0.0057
vn 0.0000 1.0000 0.0000
vn -0.1086 0.9928 0.0504
vn 0.4371 0.2162 -0.8730
vn 0.8497 0.5050 0.1514
vn 0.5905 0.8004 0.1033
vn 0.9214 0.3885 0.0008
vn 0.8678 0.4968 0.0022
vn -0.1589 0.8203 0.5494
vn -0.1667 0.9860 -0.0009
vn 0.2606 -0.0094 0.9654
vn -0.1008 0.2439 0.9645
vn -0.1330 0.0108 0.9910
vn -0.1024 0.0469 0.9936
vn -0.1384 0.0651 0.9882
vn 0.4828 -0.4657 0.7416
vn -0.1366 -0.0347 0.9900
vn -0.1493 -0.0343 0.9882
vn -0.1076 -0.0146 0.9941
vn 0.5516 -0.1991 0.8100
vn 0.5032 0.0002 -0.8642
vn -0.1844 0.7136 0.6759
vn -0.1213 0.9926 -0.0016
vn -0.7318 0.6736 -0.1031
vn -0.1549 0.0000 -0.9879
vn -0.1102 0.0000 -0.9939
vn -0.1101 0.0000 0.9939
vn -0.5055 0.8628 -0.0017
vn -0.2964 0.9550 -0.0012
vn -0.1710 0.8328 -0.5264
vn -0.1364 -0.0346 -0.9900
vn -0.1327 0.0108 -0.9911
vn -0.1448 -0.0583 -0.9877
vn -0.1381 0.0650 -0.9883
vn -0.0176 0.8046 -0.5936
vn 0.0028 1.0000 -0.0000
vn 0.9668 0.0002 -0.2555
vn 0.4764 -0.8564 0.1990
vn 0.3218 0.9296 -0.1795
vn 0.3242 0.9367 0.1319
vn 0.4683 -0.8419 -0.2681
vn 0.5314 0.8163 0.2264
vn -0.1674 0.8411 0.5143
vn -0.0116 0.8122 0.5832
vn -0.0125 -0.0553 -0.9984
vn 0.9695 0.2435 0.0254
vn 0.9676 0.2509 -0.0273
vn 0.9699 0.2432 0.0027
vn -0.1552 0.0000 0.9879
usemtl newPaintedTruckMat
s 1
f 71/1/1 69/2/2 9/3/3 13/4/4
f 72/5/5 73/6/6 11/7/7 7/8/7
f 130/9/8 140/10/9 26/11/10 42/12/11
f 79/13/12 157/14/13 25/15/14 93/16/15
f 143/17/16 6/18/17 12/19/17 92/20/18
f 25/15/14 91/21/19 148/22/20 158/23/21
f 147/24/22 8/25/17 10/26/23 149/27/24
f 63/28/25 68/29/26 49/30/27 55/31/28
f 92/20/18 12/19/17 8/25/17 147/24/22
f 139/32/29 24/33/30 28/34/31 44/35/32
f 26/11/10 133/36/33 132/37/34 22/38/35
f 93/16/15 25/15/14 158/23/21 84/39/36
f 66/40/37 63/28/25 55/31/28 56/41/38
f 154/42/39 21/43/40 23/44/40 151/45/41
f 68/29/26 67/46/26 1/47/42 49/30/27
f 82/48/43 146/49/44 4/50/7 5/51/7
f 36/52/45 125/53/45 19/54/46 17/55/46
f 44/35/32 28/34/31 29/56/47 47/57/48
f 149/27/24 10/26/23 14/58/49 97/59/50
f 65/60/26 67/46/26 6/18/17 3/61/17
f 13/4/4 96/62/51 103/63/52 15/64/53
f 119/65/54 171/66/55 16/67/56
f 27/68/57 98/69/58 100/70/59 30/71/60
f 64/72/61 66/40/37 56/41/38 58/73/62
f 95/74/63 161/75/64 103/76/52 96/77/51
f 14/58/49 64/72/61 62/78/65 178/79/66
f 62/78/65 64/72/61 58/73/62 60/80/67
f 171/81/55 180/82/68 155/83/69 16/84/56
f 2/85/46 181/86/46 163/87/46 165/88/46
f 28/34/31 43/89/70 45/90/71 29/56/47
f 159/91/72 90/92/73 98/69/58 27/68/57
f 24/33/30 136/93/74 43/89/70 28/34/31
f 157/14/13 76/94/75 91/21/19 25/15/14
f 140/10/9 126/95/76 133/36/33 26/11/10
f 87/96/77 159/91/72 27/68/57 95/74/63
f 42/12/11 26/11/10 22/38/35 137/97/78
f 22/38/35 132/37/34 135/98/79 141/99/80
f 21/43/40 86/100/81 150/101/82 23/44/40
f 17/55/46 19/54/46 129/102/83 131/103/83
f 52/104/84 73/6/6 72/5/5 53/105/85
f 20/106/86 18/107/86 145/108/87 81/109/87
f 160/110/88 175/111/88 176/112/89 99/113/89
f 156/114/90 155/115/69 180/116/68
f 178/79/66 101/117/91 97/59/50 14/58/49
f 117/118/92 122/119/93 32/120/94 116/121/95
f 45/90/71 59/122/96 48/123/97 29/56/47
f 9/3/3 88/124/98 96/62/51 13/4/4
f 43/125/70 57/126/99 59/127/96 45/128/71
f 37/129/100 53/105/85 54/130/101 39/131/102
f 4/50/7 146/49/44 94/132/103 11/7/7
f 41/133/104 35/134/105 51/135/106 52/104/84
f 11/7/7 94/132/103 153/136/107 7/8/7
f 7/8/7 153/136/107 88/124/98 9/3/3
f 3/61/17 6/18/17 143/17/16 77/137/108
f 39/131/102 54/130/101 57/126/99 43/125/70
f 8/25/17 63/28/25 66/40/37 10/26/23
f 57/126/99 71/1/1 61/138/109 59/127/96
f 59/122/96 61/139/109 142/140/110 48/123/97
f 51/135/106 70/141/6 73/6/6 52/104/84
f 60/142/67 48/123/97 142/140/110 62/143/65
f 137/97/78 22/38/35 141/99/80 138/144/111
f 34/145/112 128/146/112 1/47/42 46/147/113
f 46/147/113 1/47/42 67/46/26 65/60/26
f 74/148/6 70/141/6 51/135/106 50/149/114
f 62/143/65 31/150/115 111/151/116 113/152/117
f 5/51/7 4/50/7 70/141/6 74/148/6
f 54/130/101 69/2/2 71/1/1 57/126/99
f 53/105/85 72/5/5 69/2/2 54/130/101
f 49/30/27 134/153/118 38/154/119 55/31/28
f 41/133/104 52/104/84 53/105/85 37/129/100
f 1/47/42 33/155/120 134/153/118 49/30/27
f 38/154/119 40/156/121 56/41/38 55/31/28
f 40/156/121 44/157/32 58/73/62 56/41/38
f 6/18/17 67/46/26 68/29/26 12/19/17
f 178/79/66 62/78/65 113/152/117 179/158/122
f 73/6/6 70/141/6 4/50/7 11/7/7
f 61/159/109 71/1/1 13/4/4 15/64/53
f 160/110/88 156/114/90 180/116/68 175/111/88
f 12/19/17 68/29/26 63/28/25 8/25/17
f 69/2/2 72/5/5 7/8/7 9/3/3
f 10/26/23 66/40/37 64/72/61 14/58/49
f 47/57/48 29/56/47 48/123/97 60/142/67
f 44/157/32 47/160/48 60/80/67 58/73/62
f 179/158/122 113/152/117 111/151/116 115/161/123
f 144/162/124 78/163/124 77/164/108 143/165/16
f 146/166/44 82/167/43 81/109/87 145/108/87
f 92/168/18 147/169/22 148/22/20 91/21/19
f 94/170/103 80/171/125 79/13/12 93/16/15
f 85/172/126 89/173/126 150/101/82 86/100/81
f 152/174/127 83/175/127 154/42/39 151/45/41
f 75/176/128 92/168/18 91/21/19 76/94/75
f 153/177/107 94/170/103 93/16/15 84/39/36
f 87/96/77 95/74/63 96/77/51 88/178/98
f 98/69/58 90/92/73 149/179/24 97/180/50
f 100/70/59 98/69/58 97/180/50 101/181/91
f 30/71/60 161/75/64 95/74/63 27/68/57
f 78/163/124 144/162/124 18/107/86 20/106/86
f 99/113/89 176/112/89 162/182/89
f 106/183/89 168/184/89 124/185/89 169/186/89
f 162/187/89 176/188/89 122/189/93 173/190/129
f 115/161/123 111/151/116 112/191/130 172/192/131
f 31/150/115 61/139/109 112/191/130 111/151/116
f 32/193/94 122/194/93 123/195/86 107/196/86
f 164/197/89 166/198/89 168/184/89 106/183/89
f 102/199/132 177/200/132 170/201/132 109/202/132
f 171/203/55 32/193/94 107/196/86 167/204/86
f 121/205/46 2/85/46 165/88/46 110/206/46
f 32/120/94 171/66/55 119/65/54 116/121/95
f 118/207/133 173/208/129 117/118/92
f 114/209/134 174/210/135 116/121/95 119/65/54
f 174/210/135 118/207/133 117/118/92 116/121/95
f 114/209/134 119/65/54 16/67/56
f 173/208/129 122/119/93 117/118/92
f 61/159/109 15/64/53 172/192/131 112/191/130
f 35/134/105 127/211/136 50/149/114 51/135/106
f 105/212/7 120/213/7 104/214/7 108/215/7
