# Blender 3.4.1
# www.blender.org
mtllib streetSign.mtl
g StreetSign_Mesh
v -0.100672 9.732474 0.100672
v -0.100672 0.000000 0.100672
v -0.100672 9.732474 -0.100672
v -0.100672 0.000000 -0.100672
v 0.100672 9.732474 0.100672
v 0.100672 0.000000 0.100672
v 0.100672 9.732474 -0.100672
v 0.100672 0.000000 -0.100672
v -0.100672 8.898109 0.127959
v -0.100672 9.566471 0.127959
v -0.100672 8.898109 0.100672
v -0.100672 9.566471 0.100672
v 1.899328 8.898109 0.127959
v 1.899328 9.566471 0.127959
v 1.899328 8.898109 0.100672
v 1.899328 9.566471 0.100672
v -0.127959 8.077185 -1.901283
v -0.127959 8.745546 -1.901283
v -0.100672 8.077185 -1.901283
v -0.100672 8.745546 -1.901283
v -0.127959 8.077185 0.098717
v -0.127959 8.745546 0.098717
v -0.100672 8.077185 0.098717
v -0.100672 8.745546 0.098717
vn -0.0000 1.0000 -0.0000
vn -0.0000 -0.0000 -1.0000
vn 1.0000 -0.0000 -0.0000
vn -1.0000 -0.0000 -0.0000
vn -0.0000 -0.0000 1.0000
vn -0.0000 -1.0000 -0.0000
vt 0.036658 0.066161
vt 0.992495 0.066167
vt 0.036658 0.037008
vt 0.992495 0.037011
vt 0.007505 0.066161
vt 0.036658 0.095314
vt 0.992494 0.095324
vt 0.007505 0.037008
vt 0.036658 0.007855
vt 0.036658 0.124467
vt 0.992495 0.007854
vt 0.992494 0.124481
vt 0.272676 0.896855
vt 0.495431 0.896855
vt 0.272676 0.905950
vt 0.765044 0.224137
vt 0.261042 0.896895
vt 0.495431 0.905950
vt 0.990078 0.224137
vt 0.507066 0.896816
vt 0.272676 0.230285
vt 0.495431 0.230285
vt 0.765044 0.897526
vt 0.272676 0.221190
vt 0.261042 0.230325
vt 0.990078 0.897526
vt 0.495431 0.221191
vt 0.507065 0.230246
vt 0.019114 0.896855
vt 0.241869 0.896855
vt 0.019114 0.905950
vt 0.748330 0.894579
vt 0.007480 0.896894
vt 0.241869 0.905949
vt 0.523297 0.894579
vt 0.253504 0.896816
vt 0.019115 0.230285
vt 0.241869 0.230285
vt 0.748330 0.221190
vt 0.019115 0.221190
vt 0.007480 0.230325
vt 0.523297 0.221191
vt 0.241869 0.221191
vt 0.253504 0.230246
s 0
usemtl Material100
f 1/1/1 5/5/1 7/8/1 3/3/1
f 4/4/2 3/3/2 7/9/2 8/11/2
f 8/12/3 7/10/3 5/6/3 6/7/3
f 2/2/4 1/1/4 3/3/4 4/4/4
f 6/7/5 5/6/5 1/1/5 2/2/5
f 9/13/4 10/14/4 12/18/4 11/15/4
f 11/16/2 12/19/2 16/26/2 15/23/2
f 15/24/3 16/27/3 14/22/3 13/21/3
f 13/21/5 14/22/5 10/14/5 9/13/5
f 11/17/6 15/25/6 13/21/6 9/13/6
f 16/28/1 12/20/1 10/14/1 14/22/1
f 17/29/2 18/30/2 20/34/2 19/31/2
f 19/32/3 20/35/3 24/42/3 23/39/3
f 23/40/5 24/43/5 22/38/5 21/37/5
f 21/37/4 22/38/4 18/30/4 17/29/4
f 19/33/6 23/41/6 21/37/6 17/29/6
f 24/44/1 20/36/1 18/30/1 22/38/1
